<svg width="12" height="12" viewBox="0 0 12 12" fill="none" xmlns="http://www.w3.org/2000/svg">
<path d="M7.06127 6.00018L11.7801 1.28133C12.0733 0.988402 12.0733 0.513115 11.7801 0.220188C11.4869 -0.0729891 11.0122 -0.0729891 10.719 0.220188L6.00012 4.93904L1.28102 0.220188C0.987847 -0.0729891 0.51306 -0.0729891 0.219883 0.220188C-0.0732943 0.513115 -0.0732943 0.988402 0.219883 1.28133L4.93898 6.00018L0.219883 10.719C-0.0732943 11.012 -0.0732943 11.4872 0.219883 11.7802C0.366471 11.9265 0.558587 11.9998 0.750453 11.9998C0.942319 11.9998 1.13444 11.9265 1.28102 11.7799L6.00012 7.06107L10.719 11.7799C10.8656 11.9265 11.0577 11.9998 11.2495 11.9998C11.4414 11.9998 11.6335 11.9265 11.7801 11.7799C12.0733 11.487 12.0733 11.0117 11.7801 10.7188L7.06127 6.00018Z" fill="#1A1A1A"/>
</svg>
