<svg width="20" height="20" viewBox="0 0 20 20" fill="none" xmlns="http://www.w3.org/2000/svg">
<g clip-path="url(#clip0)">
<path d="M9.96201 0C5.9834 0 2.74658 3.23682 2.74658 7.21539C2.74658 12.1529 9.20368 19.4015 9.4786 19.7077C9.73682 19.9953 10.1877 19.9948 10.4454 19.7077C10.7203 19.4015 17.1774 12.1529 17.1774 7.21539C17.1774 3.23682 13.9406 0 9.96201 0ZM9.96201 10.8457C7.96027 10.8457 6.33179 9.21713 6.33179 7.21539C6.33179 5.21365 7.96031 3.58517 9.96201 3.58517C11.9637 3.58517 13.5922 5.21369 13.5922 7.21543C13.5922 9.21717 11.9637 10.8457 9.96201 10.8457Z" fill="#252525"/>
</g>
<defs>
<clipPath id="clip0">
<rect width="19.9232" height="19.9232" fill="white"/>
</clipPath>
</defs>
</svg>
