<svg width="76" height="28" viewBox="0 0 76 28" fill="none" xmlns="http://www.w3.org/2000/svg">
<path d="M22.5947 13.8137C22.6212 13.6796 22.6389 13.5723 22.6478 13.4919C22.6566 13.4025 22.6256 13.3087 22.5548 13.2103C22.5902 13.0673 22.6168 12.9556 22.6345 12.8751C22.661 12.7947 22.6655 12.6829 22.6478 12.5399C22.7274 12.3075 22.8469 12.1109 23.0063 11.95C23.1744 11.7891 23.3559 11.6551 23.5507 11.5478C23.7454 11.4316 23.949 11.3378 24.1614 11.2663C24.3739 11.1858 24.5731 11.1188 24.759 11.0652C24.759 11.0294 24.7412 11.0115 24.7058 11.0115C24.6704 11.0115 24.6616 10.9892 24.6793 10.9445C25.1573 10.8551 25.6353 10.7255 26.1133 10.5557C26.6002 10.3859 27.0959 10.2339 27.6004 10.0998C28.105 9.96574 28.6228 9.88529 29.1539 9.85849C29.6851 9.82274 30.2428 9.88979 30.827 10.0596C30.8624 10.1668 30.9111 10.2696 30.973 10.3679C31.035 10.4663 31.0969 10.5646 31.1589 10.663C31.2297 10.7523 31.2917 10.8417 31.3448 10.9311C31.3979 11.0205 31.4289 11.1143 31.4377 11.2126C31.5439 11.311 31.6281 11.4182 31.69 11.5344C31.7608 11.6417 31.7741 11.7891 31.7298 11.9768C31.6325 12.0483 31.5307 12.1198 31.4245 12.1914C31.3182 12.2629 31.2076 12.3299 31.0925 12.3925C30.6942 12.2941 30.2958 12.2584 29.8975 12.2852C29.4992 12.312 29.1407 12.3433 28.822 12.3791C28.7246 12.2718 28.6095 12.2226 28.4768 12.2316C28.344 12.2316 28.2023 12.2539 28.0519 12.2986C27.9102 12.3344 27.7686 12.3746 27.627 12.4193C27.4854 12.455 27.3526 12.464 27.2287 12.4461C27.1313 12.5355 27.0029 12.598 26.8436 12.6338C26.6843 12.6606 26.5161 12.6829 26.339 12.7008C26.3302 12.7455 26.339 12.7768 26.3656 12.7947C26.3921 12.8125 26.3965 12.8483 26.3789 12.9019C26.4408 12.9824 26.5249 13.0405 26.6311 13.0762C26.7374 13.103 26.8436 13.1298 26.9498 13.1567C27.0649 13.1835 27.1667 13.2237 27.2552 13.2774C27.3437 13.3221 27.4013 13.398 27.4278 13.5053C27.5872 13.5142 27.7243 13.5589 27.8394 13.6394C27.9545 13.7109 28.0519 13.8002 28.1315 13.9075C28.2112 14.0148 28.2687 14.131 28.3042 14.2561C28.3396 14.3723 28.3528 14.4795 28.344 14.5779C28.3794 14.6672 28.4148 14.703 28.4502 14.6851C28.4945 14.6672 28.5432 14.6896 28.5963 14.7521C28.6317 14.8862 28.7113 15.0292 28.8353 15.1812C28.968 15.3242 29.0699 15.4806 29.1407 15.6504C29.1583 15.9186 29.1717 16.1599 29.1805 16.3744C29.1982 16.589 29.1628 16.799 29.0743 17.0046C28.9238 17.3979 28.7069 17.7509 28.4236 18.0637C28.1404 18.3766 27.8173 18.6536 27.4544 18.895C27.1003 19.1274 26.7241 19.333 26.3257 19.5117C25.9274 19.6816 25.5335 19.8246 25.144 19.9408C25.1086 19.9318 25.0644 19.9318 25.0112 19.9408C24.967 19.9497 24.9581 19.9229 24.9847 19.8603C24.905 19.9318 24.8121 19.9765 24.7058 19.9944C24.6085 20.0123 24.4978 20.0167 24.3739 20.0078C24.2588 20.0078 24.1393 20.0033 24.0154 19.9944C23.9003 19.9855 23.7852 19.9899 23.6702 20.0078C23.5994 19.9363 23.5329 19.8648 23.471 19.7933C23.4179 19.7218 23.3737 19.6369 23.3382 19.5386C23.294 19.5296 23.2718 19.5028 23.2718 19.4581C23.2807 19.4045 23.263 19.3777 23.2187 19.3777C23.2187 19.3419 23.2232 19.3151 23.232 19.2972C23.2408 19.2794 23.2497 19.2615 23.2586 19.2436C23.294 19.2168 23.3072 19.1989 23.2984 19.19C23.2984 19.1721 23.2851 19.1587 23.2586 19.1498C23.2408 19.1319 23.2187 19.114 23.1922 19.0961C23.1744 19.0782 23.17 19.0559 23.1789 19.0291C23.2232 18.9486 23.2364 18.8547 23.2187 18.7475C23.2098 18.6313 23.201 18.5151 23.1922 18.3989C23.1833 18.2827 23.1922 18.1755 23.2187 18.0771C23.2453 17.9699 23.3205 17.8805 23.4445 17.809C23.8074 17.8448 24.1482 17.8269 24.4668 17.7554C24.7944 17.6839 25.0998 17.5855 25.383 17.4604C25.6751 17.3353 25.9496 17.2012 26.2063 17.0582C26.4718 16.9063 26.7285 16.7677 26.9764 16.6426C27.0029 16.5532 27.0428 16.4772 27.0959 16.4147C27.1579 16.3521 27.2198 16.294 27.2817 16.2404C27.3437 16.1778 27.4013 16.1152 27.4544 16.0527C27.5075 15.9812 27.5473 15.8962 27.5739 15.7979C27.5827 15.7621 27.5827 15.7353 27.5739 15.7175C27.565 15.6996 27.5517 15.6862 27.534 15.6772C27.5163 15.6594 27.4986 15.6415 27.4809 15.6236C27.4632 15.6057 27.4544 15.5789 27.4544 15.5432C27.4278 15.5342 27.4013 15.5253 27.3747 15.5163C27.357 15.5074 27.3393 15.5029 27.3216 15.5029C27.0914 15.3867 26.848 15.2884 26.5913 15.208C26.3346 15.1275 26.1177 15.0382 25.9407 14.9398C25.8345 15.0113 25.7283 15.0292 25.622 14.9935C25.5158 14.9577 25.3875 14.922 25.237 14.8862C24.8652 14.8683 24.5111 14.8326 24.1747 14.779C23.8472 14.7253 23.5285 14.6315 23.2187 14.4974C23.201 14.4438 23.1789 14.3991 23.1524 14.3633C23.1258 14.3187 23.0638 14.3052 22.9665 14.3231C22.9045 14.2337 22.8381 14.1533 22.7672 14.0818C22.7053 14.0014 22.6478 13.912 22.5947 13.8137ZM30.9576 20.0212C30.8337 19.9408 30.7363 19.838 30.6655 19.7128C30.5858 19.5877 30.5239 19.4536 30.4796 19.3106C30.4265 19.1676 30.3867 19.0202 30.3601 18.8682C30.3247 18.7073 30.2893 18.5553 30.2539 18.4123C30.2539 18.2872 30.2804 18.1978 30.3336 18.1442C30.3867 18.0816 30.4442 18.0235 30.5061 17.9699C30.7186 17.9609 30.9089 17.9431 31.0771 17.9163C31.2453 17.8894 31.4091 17.8626 31.5684 17.8358C31.7277 17.809 31.8871 17.7867 32.0464 17.7688C32.2057 17.742 32.3783 17.7286 32.5642 17.7286C32.697 17.4515 32.8209 17.1878 32.936 16.9375C33.0511 16.6783 33.1618 16.4325 33.268 16.2002C33.3211 15.9767 33.3875 15.7711 33.4672 15.5834C33.5556 15.3867 33.6398 15.2035 33.7194 15.0337C33.7991 14.8549 33.8699 14.6806 33.9319 14.5108C33.9938 14.3321 34.0336 14.1444 34.0514 13.9477C34.1576 13.6349 34.2505 13.3489 34.3302 13.0896C34.4188 12.8215 34.4851 12.5042 34.5294 12.1377C34.193 12.1914 33.923 12.245 33.7194 12.2986C33.5158 12.3433 33.3697 12.388 33.2813 12.4327C33.1042 12.4237 32.9626 12.388 32.8563 12.3254C32.759 12.2629 32.6793 12.1869 32.6174 12.0975C32.5554 12.0081 32.5023 11.9053 32.458 11.7891C32.4137 11.6729 32.3607 11.5523 32.2987 11.4272C32.3341 11.3467 32.3429 11.2305 32.3253 11.0786C32.3075 10.9177 32.2544 10.8015 32.1659 10.73C32.2367 10.7121 32.2899 10.654 32.3253 10.5557C32.3607 10.4484 32.3651 10.3679 32.3385 10.3144C32.489 10.2696 32.6483 10.2429 32.8165 10.2339C32.9847 10.2161 33.1485 10.2026 33.3078 10.1937C33.476 10.1758 33.6353 10.158 33.7858 10.14C33.9363 10.1132 34.0646 10.0641 34.1709 9.99254C34.6312 9.97469 35.1092 9.95679 35.6049 9.93894C36.1095 9.92104 36.5742 9.89875 36.9991 9.87189C37.1584 9.92555 37.3398 9.95234 37.5435 9.95234C37.7559 9.95234 37.9639 9.96574 38.1675 9.99254C38.38 10.0194 38.5659 10.0775 38.7252 10.1668C38.8934 10.2562 39.0085 10.4127 39.0704 10.6361C39.2032 10.654 39.3006 10.6898 39.3625 10.7434C39.4333 10.797 39.4776 10.8641 39.4953 10.9445C39.513 11.016 39.5175 11.1009 39.5086 11.1992C39.5086 11.2886 39.5086 11.378 39.5086 11.4674C39.367 11.5746 39.1855 11.664 38.9642 11.7355C38.7518 11.7981 38.5172 11.8517 38.2605 11.8964C38.0037 11.9322 37.7338 11.959 37.4505 11.9768C37.1761 11.9858 36.9061 11.9947 36.6405 12.0037C36.5963 12.2986 36.5167 12.6472 36.4016 13.0495C36.2954 13.4427 36.1847 13.8315 36.0696 14.2159C35.9545 14.5913 35.8528 14.9309 35.7642 15.2348C35.6845 15.5298 35.6491 15.7219 35.658 15.8113C35.5695 16.0169 35.4942 16.1912 35.4323 16.3342C35.3792 16.4772 35.326 16.6113 35.2729 16.7364C35.2287 16.8616 35.18 16.9867 35.1269 17.1118C35.0826 17.228 35.0251 17.3621 34.9543 17.514H35.8572C35.8749 17.6124 35.9147 17.6794 35.9766 17.7152C36.0386 17.7509 36.105 17.7822 36.1758 17.809C36.2467 17.8358 36.3086 17.8716 36.3617 17.9163C36.4237 17.952 36.4546 18.0146 36.4546 18.104C36.6229 18.1486 36.7291 18.2157 36.7734 18.3051C36.8176 18.3944 36.8264 18.4928 36.7999 18.6C36.7822 18.6983 36.7379 18.8011 36.6671 18.9084C36.6051 19.0157 36.5432 19.1095 36.4812 19.19C36.4016 19.1721 36.3263 19.1944 36.2555 19.257C36.1847 19.3106 36.1183 19.3732 36.0563 19.4447C35.7996 19.409 35.5473 19.4045 35.2995 19.4313C35.0516 19.4581 34.8215 19.4805 34.609 19.4983C34.5648 19.5073 34.5471 19.5341 34.5559 19.5788C34.5648 19.6145 34.5559 19.6413 34.5294 19.6592C34.2549 19.5698 33.9717 19.5341 33.6796 19.552C33.3963 19.5698 33.1042 19.6145 32.8033 19.686C32.5111 19.7486 32.2102 19.8156 31.9003 19.8871C31.5906 19.9676 31.2763 20.0123 30.9576 20.0212ZM40.6218 18.6C40.5333 18.6715 40.4802 18.7654 40.4625 18.8816C40.4448 18.9889 40.4226 19.0961 40.3961 19.2034C40.3695 19.3106 40.3209 19.4045 40.2501 19.4849C40.1881 19.5564 40.073 19.5877 39.9048 19.5788C39.8694 19.6235 39.8605 19.6503 39.8783 19.6592C39.9048 19.6682 39.9269 19.7084 39.9446 19.7799C39.8207 19.762 39.7322 19.7709 39.6791 19.8067C39.626 19.8424 39.5596 19.8693 39.4799 19.8871C39.2763 19.8246 39.1037 19.7128 38.9621 19.552C38.8293 19.3821 38.7098 19.1989 38.6036 19.0023C38.5062 18.8056 38.4177 18.6045 38.338 18.3989C38.2672 18.1933 38.192 18.0146 38.1123 17.8626C38.1123 17.8269 38.13 17.8135 38.1654 17.8224C38.192 17.8224 38.2185 17.8224 38.245 17.8224C38.2008 17.733 38.1698 17.6347 38.1521 17.5275C38.1256 17.4113 38.0813 17.3174 38.0193 17.2459C38.276 16.6917 38.5505 16.1152 38.8426 15.5163C39.1347 14.9086 39.4268 14.2963 39.7189 13.6796C40.0199 13.0539 40.3164 12.4282 40.6085 11.8025C40.9095 11.1679 41.1972 10.5468 41.4716 9.93894C41.7195 10.0283 41.9584 10.1356 42.1886 10.2607C42.4276 10.3769 42.6445 10.5155 42.8392 10.6764C43.034 10.8372 43.1977 11.0249 43.3305 11.2395C43.4721 11.445 43.5651 11.6819 43.6093 11.95C43.5917 12.0037 43.5695 12.0215 43.5429 12.0037C43.5164 11.9858 43.4942 11.9947 43.4766 12.0305C43.5208 12.0841 43.5429 12.1243 43.5429 12.1511C43.5518 12.169 43.5518 12.1914 43.5429 12.2182C43.5341 12.236 43.5297 12.2629 43.5297 12.2986C43.5297 12.3344 43.5518 12.3835 43.5961 12.4461C43.5518 12.4371 43.5208 12.4461 43.5031 12.4729C43.4854 12.4908 43.4544 12.4908 43.4102 12.4729C43.4544 12.598 43.4677 12.6964 43.45 12.7679C43.4323 12.8394 43.4058 12.9064 43.3704 12.969C43.335 13.0226 43.304 13.0852 43.2774 13.1567C43.2597 13.2193 43.2685 13.3087 43.304 13.4248C43.2685 13.4248 43.242 13.4338 43.2243 13.4517C43.2154 13.4606 43.2066 13.474 43.1977 13.4919C43.1889 13.5098 43.1756 13.5276 43.1579 13.5455C43.1491 13.5545 43.1269 13.5545 43.0915 13.5455C43.1181 13.7779 43.1269 14.0148 43.1181 14.2561C43.1092 14.4885 43.1003 14.7298 43.0915 14.9801C43.0827 15.2214 43.0827 15.4717 43.0915 15.7309C43.1003 15.9901 43.1357 16.2583 43.1977 16.5353C43.5783 16.3119 43.8838 16.0213 44.1139 15.6638C44.3529 15.3063 44.5388 14.9086 44.6716 14.4706C44.8132 14.0326 44.9194 13.5634 44.9903 13.0628C45.0699 12.5623 45.1496 12.0528 45.2292 11.5344C45.3266 11.4361 45.4019 11.3154 45.455 11.1724C45.5169 11.0294 45.5656 10.8819 45.601 10.73C45.6453 10.578 45.6851 10.4261 45.7205 10.2741C45.7648 10.1132 45.8223 9.97025 45.8931 9.84509C46.0525 9.86294 46.1852 9.91215 46.2915 9.99254C46.4065 10.0641 46.5128 10.149 46.6102 10.2473C46.7075 10.3367 46.8093 10.4216 46.9155 10.5021C47.0217 10.5825 47.1546 10.6361 47.3139 10.663C47.4378 10.8417 47.5529 11.016 47.6591 11.1858C47.7653 11.3467 47.8361 11.5299 47.8715 11.7355C47.8185 11.8249 47.7786 11.9232 47.752 12.0305C47.7255 12.1377 47.6945 12.245 47.6591 12.3522C47.6326 12.4595 47.5927 12.5578 47.5396 12.6472C47.4865 12.7366 47.4113 12.8125 47.3139 12.8751C47.2873 13.1433 47.2475 13.3936 47.1944 13.626C47.1413 13.8583 47.0926 14.0863 47.0483 14.3097C47.0041 14.5332 46.9642 14.7656 46.9288 15.0069C46.8934 15.2482 46.8801 15.5119 46.889 15.7979C46.8093 16.0571 46.7208 16.3253 46.6234 16.6024C46.5261 16.8705 46.4553 17.1208 46.411 17.3532C46.2428 17.4872 46.11 17.6526 46.0127 17.8492C45.9153 18.0459 45.8134 18.2425 45.7072 18.4391C45.663 18.4749 45.6364 18.4838 45.6276 18.4659C45.6187 18.4391 45.5789 18.4213 45.5081 18.4123C45.5169 18.4928 45.4992 18.5464 45.455 18.5732C45.4196 18.5911 45.424 18.6536 45.4683 18.7609C45.3178 18.8325 45.185 18.9263 45.0699 19.0425C44.9549 19.1587 44.8265 19.2659 44.6849 19.3643C44.5521 19.4626 44.3927 19.5296 44.2068 19.5654C44.0298 19.5922 43.7952 19.552 43.5031 19.4447C43.0694 19.1229 42.6799 18.752 42.3347 18.3319C41.9894 17.9118 41.715 17.4157 41.5114 16.8437C41.4229 16.8705 41.3565 16.9286 41.3123 17.018C41.268 17.1074 41.2282 17.2012 41.1928 17.2995C41.1573 17.3979 41.1219 17.4872 41.0865 17.5677C41.0511 17.6481 40.998 17.6883 40.9272 17.6883C40.9095 17.7688 40.8741 17.8448 40.821 17.9163C40.7767 17.9788 40.7325 18.0459 40.6882 18.1174C40.6439 18.1799 40.6085 18.2514 40.582 18.3319C40.5643 18.4123 40.5776 18.5017 40.6218 18.6ZM48.9582 13.2237C48.9405 13.1076 48.9184 13.036 48.8918 13.0092C48.9538 12.8483 48.998 12.6919 49.0248 12.5399C49.0601 12.3791 49.0868 12.2271 49.1042 12.0841C49.1221 11.959 49.1396 11.8428 49.1575 11.7355C49.1841 11.6283 49.2151 11.5255 49.2505 11.4272C49.4006 11.3914 49.5116 11.3288 49.5823 11.2395C49.6622 11.1411 49.7237 11.0562 49.7683 10.9847C49.9276 10.9758 50.0293 10.9981 50.0734 11.0518C50.1267 11.1054 50.1843 11.1948 50.2463 11.3199C50.2904 11.4182 50.3524 11.5255 50.4323 11.6417C50.5117 11.7489 50.6314 11.8338 50.7907 11.8964C50.8174 11.9947 50.8484 12.0886 50.8837 12.1779C50.9191 12.2673 50.9588 12.3612 51.0028 12.4595C51.0828 12.6472 51.1578 12.8438 51.2285 13.0495C51.2998 13.2461 51.3395 13.4338 51.3482 13.6125C51.2421 13.8181 51.1578 14.055 51.0958 14.3231C51.0431 14.5913 51.0072 14.8639 50.9898 15.1409C50.9811 15.4091 50.9898 15.6683 51.0164 15.9186C51.0431 16.1689 51.0871 16.3789 51.1491 16.5487L51.2285 16.7633L51.5206 16.7364C51.8393 16.656 52.127 16.5666 52.3837 16.4683C52.6404 16.361 52.8797 16.2359 53.1011 16.0928C53.3224 15.9498 53.5345 15.789 53.7385 15.6102C53.9419 15.4225 54.1545 15.2035 54.3759 14.9533C54.588 14.703 54.7783 14.4214 54.9464 14.1086C55.115 13.7868 55.252 13.4561 55.3581 13.1164C55.4734 12.7768 55.562 12.4371 55.6235 12.0975C55.6855 11.7579 55.7257 11.4406 55.7431 11.1456C55.9112 11.0652 56.0042 10.9356 56.0221 10.7568L55.9824 10.5825C55.9558 10.5378 55.9422 10.4976 55.9422 10.4618C55.9514 10.4172 55.9645 10.3769 55.9824 10.3412C56.0531 10.1356 56.2038 9.98365 56.4338 9.88529C56.5932 9.99254 56.739 10.1087 56.8717 10.2339C57.0136 10.3591 57.142 10.4842 57.2567 10.6093C57.2747 10.8507 57.31 11.0607 57.3633 11.2395C57.4161 11.4093 57.4737 11.5746 57.5357 11.7355C57.5977 11.8875 57.651 12.0349 57.6951 12.1779C57.7484 12.321 57.7837 12.4952 57.8011 12.7008C57.713 12.969 57.6467 13.2237 57.6021 13.4651C57.5667 13.6975 57.5314 13.9433 57.496 14.2025L57.4694 14.3499C57.31 14.627 57.1507 14.913 56.9913 15.208C56.8407 15.494 56.7172 15.7443 56.6193 15.9588C56.5665 16.0125 56.5176 16.075 56.4735 16.1465C56.4382 16.218 56.4028 16.2895 56.3675 16.361C56.3495 16.3879 56.3229 16.4325 56.2875 16.4951C56.2609 16.5577 56.2342 16.6024 56.2081 16.6292L55.8894 16.5085L55.8095 16.9241L55.5974 16.9778L55.438 17.1655C55.2341 17.523 55.0176 17.8224 54.787 18.0637C54.5657 18.3051 54.3139 18.5196 54.0305 18.7073C53.7559 18.895 53.4415 19.0738 53.0875 19.2436C52.7426 19.4045 52.344 19.5788 51.8926 19.7665C51.7158 19.7397 51.5608 19.7263 51.4281 19.7263C51.3041 19.7173 51.1801 19.7084 51.0561 19.6994C50.9321 19.6994 50.8125 19.695 50.6977 19.686C50.5824 19.6771 50.4497 19.6637 50.2991 19.6458C50.2637 19.5654 50.2153 19.5073 50.1533 19.4715C50.0913 19.4358 50.0337 19.4179 49.9804 19.4179C49.8036 19.3285 49.6709 19.2034 49.5823 19.0425C49.4936 18.8816 49.4006 18.7029 49.3033 18.5062C49.2592 18.3989 49.2103 18.2917 49.1575 18.1844C49.1129 18.0771 49.0558 17.9744 48.9848 17.876L49.2505 17.7956L48.9051 17.3934C48.8786 17.3666 48.8476 17.3398 48.8121 17.3129C48.7856 17.2861 48.7591 17.2548 48.7325 17.2191V16.9644C48.6971 16.2314 48.6794 15.5566 48.6794 14.9398C48.6883 14.3142 48.7723 13.7645 48.9316 13.2908L48.9582 13.2237ZM58.2242 12.2986C58.215 12.2271 58.1976 12.1645 58.1709 12.1109C58.153 12.0483 58.1312 11.9813 58.1046 11.9098C58.0605 11.8025 58.0203 11.6864 57.9849 11.5612C57.9496 11.4361 57.9322 11.2886 57.9322 11.1188C57.9496 11.0294 57.9719 10.9668 57.9985 10.9311C58.0246 10.8864 58.0513 10.8507 58.0779 10.8238L58.1312 10.5825H58.3303C58.401 10.5914 58.4717 10.5959 58.5429 10.5959C58.6223 10.5959 58.6974 10.5959 58.7687 10.5959C59.1048 10.5959 59.4501 10.5825 59.8042 10.5557C60.1582 10.5289 60.521 10.4976 60.893 10.4618C61.3003 10.4082 61.7381 10.3679 62.2075 10.3412C62.2515 10.2429 62.2782 10.1802 62.2869 10.1534C62.3048 10.1266 62.3223 10.0953 62.3402 10.0596L62.4865 9.97914C62.6899 9.97025 62.8313 9.99705 62.9113 10.0596C62.9907 10.1132 63.0527 10.1668 63.0973 10.2205C63.3273 10.2026 63.5617 10.1802 63.801 10.1534C64.0398 10.1177 64.2878 10.0819 64.5445 10.0462C64.8985 10.0015 65.2569 9.95679 65.6197 9.91215C65.983 9.86744 66.3371 9.84509 66.6819 9.84509C66.8325 9.84509 66.9745 9.84954 67.1072 9.85849C67.2399 9.86744 67.3682 9.88084 67.4922 9.89875L67.6516 10.0194C67.6869 10.0819 67.731 10.14 67.7843 10.1937C67.837 10.2473 67.899 10.301 67.9703 10.3546C68.103 10.4618 68.2313 10.5959 68.3553 10.7568C68.488 10.9177 68.5364 11.1545 68.5011 11.4674L68.4347 11.6014C68.3994 11.6372 68.3553 11.6729 68.302 11.7087L68.1693 11.883H68.023C67.9349 11.883 67.868 11.8919 67.824 11.9098C67.7799 11.9187 67.7266 11.9366 67.6646 11.9634C67.6293 11.9813 67.5896 11.9992 67.545 12.0171C67.5009 12.026 67.452 12.0394 67.3992 12.0573C67.3019 12.0483 67.2263 12.0439 67.1735 12.0439C67.1202 12.0439 67.0582 12.0439 66.9875 12.0439C66.7221 12.0439 66.4344 12.0618 66.1244 12.0975C65.8144 12.1333 65.5136 12.1735 65.2216 12.2182C65.0089 12.245 64.8055 12.2718 64.6108 12.2986C64.4161 12.3165 64.2388 12.3344 64.0795 12.3522C63.9914 12.5846 63.9114 12.7902 63.8407 12.969C63.77 13.1478 63.6944 13.3265 63.615 13.5053C63.5351 13.6841 63.46 13.8673 63.3893 14.055C63.3186 14.2337 63.2517 14.4348 63.1903 14.6583C63.0837 14.8192 62.995 14.9756 62.9243 15.1275C62.8536 15.2706 62.796 15.4359 62.7519 15.6236C62.6192 15.7755 62.5219 15.941 62.4599 16.1197C62.4066 16.2985 62.3581 16.4504 62.3135 16.5756L62.2608 16.7767C62.1988 16.8392 62.1586 16.8884 62.1411 16.9241C62.1324 16.9599 62.1101 17.0001 62.0748 17.0448C62.0481 17.161 62.0128 17.2727 61.9682 17.38C61.9508 17.4247 61.9328 17.4738 61.9154 17.5275C61.8975 17.5721 61.8931 17.6079 61.9018 17.6347C61.8844 17.733 61.8578 17.809 61.8224 17.8626C61.8224 17.9163 61.8181 17.9699 61.8088 18.0235C61.8001 18.0771 61.7914 18.1308 61.7827 18.1844C61.7648 18.247 61.7517 18.3051 61.7425 18.3587C61.7338 18.4034 61.7381 18.4481 61.7561 18.4928C61.7827 18.5285 61.8088 18.5643 61.8355 18.6C61.8621 18.6358 61.8844 18.6805 61.9018 18.7341C61.9198 18.752 61.9421 18.7654 61.9682 18.7744C61.9948 18.7832 62.0171 18.7967 62.0351 18.8145C62.1058 18.8771 62.1721 18.9128 62.2341 18.9218L62.3669 19.0827C62.4202 19.4045 62.3712 19.6548 62.2206 19.8335C62.0612 20.0391 61.7958 20.1419 61.4238 20.1419L61.2383 20.1285C61.1763 20.0659 61.141 20.0257 61.1317 20.0078C61.0523 19.9721 60.986 19.9408 60.9327 19.914C60.8794 19.8961 60.831 19.8559 60.7869 19.7933C60.769 19.7754 60.7467 19.7665 60.7206 19.7665C60.6939 19.7575 60.6716 19.7441 60.6537 19.7263C60.5656 19.6994 60.4943 19.6682 60.4416 19.6324L60.2953 19.552C60.3045 19.4626 60.3089 19.4 60.3089 19.3643C60.2376 19.2659 60.1805 19.1587 60.1359 19.0425C60.1006 18.9263 60.0696 18.8056 60.0429 18.6805C60.0168 18.5821 59.9902 18.4928 59.9635 18.4123C59.9456 18.3319 59.9146 18.2604 59.8705 18.1978C59.8526 17.5721 59.9102 17.0493 60.0429 16.6292C60.1762 16.2002 60.3219 15.7845 60.4813 15.3823C60.5699 15.1678 60.6537 14.9488 60.7336 14.7253C60.813 14.5019 60.8843 14.274 60.9463 14.0416L61.092 13.8941C61.154 13.8405 61.1937 13.8092 61.2117 13.8002C61.2117 13.6841 61.234 13.5723 61.278 13.4651C61.3221 13.3489 61.371 13.2327 61.4238 13.1164C61.4597 13.0449 61.4907 12.9734 61.5168 12.9019C61.5521 12.8304 61.5744 12.7679 61.5831 12.7142C61.5217 12.7142 61.464 12.7187 61.4107 12.7276C61.3667 12.7276 61.3177 12.7321 61.265 12.741C61.1497 12.7679 61.0387 12.7813 60.9327 12.7813C60.8533 12.7813 60.7956 12.7768 60.7603 12.7679C60.6896 12.8036 60.6227 12.826 60.5612 12.8349C60.4992 12.8349 60.4372 12.8349 60.3752 12.8349H60.2159H60.0565C59.9505 12.8349 59.8662 12.8483 59.8042 12.8751C59.6802 12.8751 59.6008 12.8751 59.5654 12.8751C59.5295 12.8751 59.4898 12.8751 59.4458 12.8751H59.2864H59.1271C59.0564 12.8751 58.9764 12.8706 58.8878 12.8617C58.7996 12.8438 58.7066 12.8081 58.6093 12.7544L58.5163 12.6472C58.463 12.5489 58.4146 12.4952 58.37 12.4863L58.2242 12.4461V12.2986ZM66.8396 13.8137C66.8657 13.6796 66.8836 13.5723 66.8923 13.4919C66.901 13.4025 66.87 13.3087 66.7993 13.2103C66.8347 13.0673 66.8613 12.9556 66.8793 12.8751C66.9059 12.7947 66.9103 12.6829 66.8923 12.5399C66.9723 12.3075 67.0914 12.1109 67.2507 11.95C67.4193 11.7891 67.6004 11.6551 67.7951 11.5478C67.9898 11.4316 68.1938 11.3378 68.4059 11.2663C68.6186 11.1858 68.8176 11.1188 69.0036 11.0652C69.0036 11.0294 68.9857 11.0115 68.9503 11.0115C68.915 11.0115 68.9063 10.9892 68.9242 10.9445C69.4017 10.8551 69.8798 10.7255 70.3578 10.5557C70.8446 10.3859 71.3406 10.2339 71.8453 10.0998C72.3495 9.96574 72.8672 9.88529 73.3986 9.85849C73.9299 9.82274 74.4874 9.88979 75.0715 10.0596C75.1068 10.1668 75.1558 10.2696 75.2178 10.3679C75.2798 10.4663 75.3418 10.5646 75.4038 10.663C75.4745 10.7523 75.5365 10.8417 75.5893 10.9311C75.6426 11.0205 75.6735 11.1143 75.6823 11.2126C75.7888 11.311 75.8726 11.4182 75.9346 11.5344C76.0053 11.6417 76.0189 11.7891 75.9743 11.9768C75.877 12.0483 75.7753 12.1198 75.6692 12.1914C75.5631 12.2629 75.4522 12.3299 75.3374 12.3925C74.9388 12.2941 74.5407 12.2584 74.142 12.2852C73.7439 12.312 73.3855 12.3433 73.0668 12.3791C72.9695 12.2718 72.8542 12.2226 72.7215 12.2316C72.5888 12.2316 72.4468 12.2539 72.2967 12.2986C72.1548 12.3344 72.0133 12.3746 71.8714 12.4193C71.73 12.455 71.5973 12.464 71.4733 12.4461C71.3759 12.5355 71.2476 12.598 71.0882 12.6338C70.9289 12.6606 70.7608 12.6829 70.5835 12.7008C70.5748 12.7455 70.5835 12.7768 70.6102 12.7947C70.6368 12.8125 70.6412 12.8483 70.6238 12.9019C70.6852 12.9824 70.7695 13.0405 70.8756 13.0762C70.9822 13.103 71.0882 13.1298 71.1943 13.1567C71.3096 13.1835 71.4113 13.2237 71.4999 13.2774C71.5886 13.3221 71.6457 13.398 71.6723 13.5053C71.8317 13.5142 71.9688 13.5589 72.0841 13.6394C72.1994 13.7109 72.2967 13.8002 72.3761 13.9075C72.4561 14.0148 72.5132 14.131 72.5491 14.2561C72.5844 14.3723 72.5975 14.4795 72.5888 14.5779C72.6241 14.6672 72.6595 14.703 72.6948 14.6851C72.7389 14.6672 72.7878 14.6896 72.8411 14.7521C72.8765 14.8862 72.9559 15.0292 73.0799 15.1812C73.2126 15.3242 73.3143 15.4806 73.3855 15.6504C73.4029 15.9186 73.4165 16.1599 73.4252 16.3744C73.4426 16.589 73.4073 16.799 73.3192 17.0046C73.1685 17.3979 72.9515 17.7509 72.6682 18.0637C72.3848 18.3766 72.0618 18.6536 71.699 18.895C71.3449 19.1274 70.9686 19.333 70.5705 19.5117C70.1718 19.6816 69.7781 19.8246 69.3887 19.9408C69.3533 19.9318 69.3093 19.9318 69.256 19.9408C69.2114 19.9497 69.2027 19.9229 69.2293 19.8603C69.1499 19.9318 69.0569 19.9765 68.9503 19.9944C68.853 20.0123 68.7426 20.0167 68.6186 20.0078C68.5033 20.0078 68.3842 20.0033 68.2602 19.9944C68.1449 19.9855 68.0301 19.9899 67.9148 20.0078C67.8441 19.9363 67.7777 19.8648 67.7157 19.7933C67.6624 19.7218 67.6184 19.6369 67.583 19.5386C67.5384 19.5296 67.5167 19.5028 67.5167 19.4581C67.5254 19.4045 67.5074 19.3777 67.4634 19.3777C67.4634 19.3419 67.4677 19.3151 67.4764 19.2972C67.4857 19.2794 67.4944 19.2615 67.5031 19.2436C67.5384 19.2168 67.552 19.1989 67.5428 19.19C67.5428 19.1721 67.5297 19.1587 67.5031 19.1498C67.4857 19.1319 67.4634 19.114 67.4367 19.0961C67.4193 19.0782 67.4144 19.0559 67.4237 19.0291C67.4677 18.9486 67.4813 18.8547 67.4634 18.7475C67.4547 18.6313 67.4454 18.5151 67.4367 18.3989C67.428 18.2827 67.4367 18.1755 67.4634 18.0771C67.49 17.9699 67.5651 17.8805 67.6891 17.809C68.0519 17.8448 68.3929 17.8269 68.7116 17.7554C69.039 17.6839 69.3446 17.5855 69.6274 17.4604C69.92 17.3353 70.1941 17.2012 70.4508 17.0582C70.7162 16.9063 70.9729 16.7677 71.2209 16.6426C71.2476 16.5532 71.2873 16.4772 71.3406 16.4147C71.4026 16.3521 71.4646 16.294 71.5266 16.2404C71.5886 16.1778 71.6457 16.1152 71.699 16.0527C71.7523 15.9812 71.792 15.8962 71.8186 15.7979C71.8273 15.7621 71.8273 15.7353 71.8186 15.7175C71.8099 15.6996 71.7963 15.6862 71.7789 15.6772C71.761 15.6594 71.743 15.6415 71.7256 15.6236C71.7077 15.6057 71.699 15.5789 71.699 15.5432C71.6723 15.5342 71.6457 15.5253 71.6196 15.5163C71.6017 15.5074 71.5837 15.5029 71.5663 15.5029C71.3362 15.3867 71.0926 15.2884 70.8359 15.208C70.5792 15.1275 70.3622 15.0382 70.1854 14.9398C70.0794 15.0113 69.9728 15.0292 69.8667 14.9935C69.7607 14.9577 69.6323 14.922 69.4817 14.8862C69.1097 14.8683 68.7556 14.8326 68.4195 14.779C68.0921 14.7253 67.7734 14.6315 67.4634 14.4974C67.4454 14.4438 67.4237 14.3991 67.397 14.3633C67.3704 14.3187 67.3084 14.3052 67.211 14.3231C67.149 14.2337 67.0827 14.1533 67.012 14.0818C66.95 14.0014 66.8923 13.912 66.8396 13.8137Z" fill="#FEB302"/>
<path d="M1.20758 18.4694C0.957218 18.2745 0.750031 18.031 0.585969 17.7388C0.430606 17.4465 0.305425 17.1366 0.210425 16.8089C0.124124 16.4813 0.0636546 16.1447 0.0291236 15.7994C0.00323856 15.4452 -0.00539679 15.1086 0.00323862 14.7899C0.0809467 14.5507 0.175894 14.3338 0.288133 14.139C0.400372 13.9353 0.525554 13.7449 0.663678 13.5678C0.801802 13.3818 0.944275 13.2091 1.09105 13.0497C1.24641 12.8815 1.39753 12.7132 1.5443 12.5449C1.59607 12.5449 1.64354 12.5582 1.68672 12.5848C1.72125 12.4874 1.77307 12.4033 1.84213 12.3324C1.9112 12.2616 1.98461 12.1996 2.06226 12.1465C2.13997 12.0845 2.21768 12.0269 2.29539 11.9738C2.3731 11.9118 2.43781 11.841 2.48963 11.7612C2.70546 11.7081 2.89541 11.6328 3.05942 11.5354C3.23207 11.438 3.39614 11.3317 3.55155 11.2166C3.70692 11.1015 3.86663 10.9952 4.03069 10.8978C4.1947 10.8004 4.38465 10.7251 4.60048 10.672C4.67819 10.5835 4.77313 10.5082 4.88537 10.4462C5.00626 10.3842 5.12279 10.3266 5.23503 10.2735C5.35586 10.2203 5.4681 10.1628 5.5717 10.1008C5.68394 10.0388 5.77459 9.95471 5.84365 9.8484C5.89547 9.91929 5.96883 9.94584 6.06383 9.9281C6.15878 9.90155 6.24513 9.875 6.32284 9.8484C6.37461 9.83958 6.41779 9.8484 6.45232 9.875C6.48685 9.90155 6.51708 9.93257 6.54297 9.96799C6.5775 9.99454 6.60338 10.0123 6.62068 10.0211C6.64656 10.03 6.67245 10.0034 6.69838 9.94138C6.76745 9.95025 6.78468 9.98126 6.75015 10.0344C6.72427 10.0875 6.70698 10.1229 6.69838 10.1407C6.78468 10.1229 6.85375 10.1407 6.90557 10.1938C6.96599 10.2381 7.05664 10.2691 7.17752 10.2868C7.2207 10.3311 7.23364 10.3665 7.21635 10.393C7.19911 10.4196 7.18617 10.4639 7.17752 10.5259C7.4883 10.6233 7.68689 10.7782 7.77319 10.9908C7.85955 11.1945 7.86819 11.4115 7.79913 11.6417C7.73007 11.863 7.60054 12.0712 7.41059 12.266C7.22929 12.452 7.02645 12.576 6.80198 12.6379C6.53432 12.7088 6.28396 12.7796 6.05089 12.8505C5.82641 12.9213 5.60623 13.001 5.3904 13.0896C5.18321 13.1781 4.98467 13.2844 4.79472 13.4084C4.61342 13.5235 4.45371 13.6608 4.31558 13.8202C4.07387 13.891 3.85369 13.9884 3.65515 14.1124C3.4652 14.2364 3.2839 14.3736 3.11124 14.5242C2.94718 14.6747 2.78747 14.8341 2.6321 15.0024C2.47669 15.1618 2.32127 15.3212 2.16586 15.4806C2.16586 15.6311 2.13997 15.7463 2.0882 15.826C2.03638 15.9057 1.98026 15.9853 1.91984 16.065C1.93708 16.2333 1.97161 16.3794 2.02344 16.5034C2.08385 16.6185 2.14432 16.7381 2.20474 16.8621C2.89541 17.0746 3.62491 17.2074 4.39329 17.2606C5.17027 17.3048 5.93865 17.3314 6.69838 17.3403C6.77609 17.4465 6.86239 17.5484 6.95739 17.6458C7.06099 17.7343 7.15164 17.8273 7.22929 17.9247C7.31564 18.0221 7.38041 18.1372 7.42359 18.2701C7.47536 18.3941 7.4883 18.5446 7.46241 18.7217C7.31564 18.8723 7.15593 19.0184 6.98328 19.1601C6.81062 19.2929 6.63791 19.4258 6.46526 19.5586C6.38755 19.5674 6.2926 19.5674 6.18037 19.5586C6.07677 19.5498 5.96453 19.5453 5.84365 19.5453C5.73146 19.5453 5.61487 19.5542 5.49404 19.5718C5.3818 19.5807 5.27386 19.6073 5.17027 19.6516C4.62636 19.6339 4.06952 19.5674 3.49973 19.4523C2.92994 19.3284 2.40328 19.1822 1.91984 19.014C1.82484 18.8989 1.7256 18.7926 1.62201 18.6952C1.51836 18.5889 1.38024 18.5136 1.20758 18.4694Z" fill="#FEB302"/>
<path d="M19.4315 8.43826C19.146 8.60902 18.5364 8.85708 18.0495 9.00427C16.8953 9.34692 16.058 9.74895 15.1682 10.3856C14.7046 10.7211 13.885 11.4221 13.7293 11.6144C13.7242 11.6229 13.8259 11.7093 13.9538 11.8081L14.1899 11.9917L14.3203 11.8781C14.5295 11.6991 14.7687 11.3782 14.8836 11.133C14.9403 11.007 14.9914 10.9041 14.9979 10.9026C15.0304 10.8952 14.9656 11.1363 14.8785 11.3496C14.7823 11.5868 14.5595 11.904 14.4011 12.0313C14.3067 12.1038 14.3109 12.1248 14.4712 12.2855C14.5823 12.4026 14.7993 12.6965 14.971 12.9678C15.0404 13.0798 15.074 13.043 15.1895 12.7319C15.2873 12.4688 15.4518 12.3036 15.8518 12.0593C16.2376 11.8292 16.3734 11.656 16.8889 10.7539C17.516 9.65854 17.6666 9.40525 17.5736 9.62356C17.4143 9.98834 16.9011 11.0067 16.6763 11.401C16.4284 11.8334 16.2711 12.0006 15.8989 12.2312C15.5902 12.4218 15.4851 12.526 15.3931 12.7149C15.3504 12.8085 15.2776 12.9565 15.2302 13.044L15.1497 13.2046L15.2927 13.3291C15.5343 13.5407 16.0049 13.8828 16.1246 13.9395L16.237 13.9943L16.3882 13.7263C16.5694 13.404 16.8593 12.7357 17.105 12.0666C17.317 11.4854 17.3284 11.4572 17.2626 11.7277C17.1077 12.358 16.7097 13.4451 16.494 13.8337L16.348 14.0932L16.6733 14.2821L17.0025 14.4738L17.0673 14.3714C17.1643 14.2253 17.4203 13.6962 17.5431 13.3872C17.6888 13.0218 17.7932 12.5673 17.8127 12.216C17.8404 11.6292 18.0485 10.9066 18.5123 9.75701C18.8342 8.95734 18.8205 9.02618 18.4347 10.158C18.145 11.0014 18.0011 11.6183 17.9616 12.1968C17.9431 12.4492 17.9043 12.7537 17.8735 12.8739C17.7946 13.1985 17.5778 13.7553 17.3689 14.1788C17.1989 14.5241 17.1907 14.5515 17.2536 14.5956C17.3552 14.6638 17.9716 14.9362 18.0073 14.9281C18.0236 14.9244 18.1952 14.692 18.3872 14.4074C18.6216 14.062 18.758 13.8229 18.806 13.6696C18.9205 13.3186 18.9949 12.7797 19.0502 11.9348C19.1076 11.0491 19.1646 10.4558 19.1882 10.4723C19.1993 10.4771 19.1984 10.5247 19.1944 10.5731C19.187 10.6222 19.1726 11.0344 19.1632 11.4892C19.1365 12.879 19.0549 13.5546 18.8614 13.9527C18.8154 14.0471 18.6403 14.3316 18.4721 14.5815L18.162 15.0427L18.3834 15.1858L18.6048 15.329L18.6617 15.2212L18.7219 15.1126L18.6925 15.2397L18.6631 15.3668L18.8744 15.5452C18.9885 15.6434 19.0961 15.7248 19.1104 15.7288C19.205 15.7439 19.4817 14.5747 19.5577 13.8529C19.6502 12.9557 19.629 12.223 19.4769 10.9251C19.3651 9.97204 19.3709 9.68962 19.5089 9.12889C19.5942 8.78463 19.6142 8.34929 19.5481 8.37525C19.5318 8.37892 19.4833 8.40823 19.4315 8.43826ZM16.2795 10.3959C16.2277 10.5647 15.8197 11.2014 15.5282 11.567C15.395 11.736 15.1801 12.0076 15.0502 12.1758C14.9164 12.3413 14.8081 12.4645 14.8047 12.447C14.7938 12.3911 15.2355 11.7358 15.6992 11.1229C15.9576 10.7794 16.1986 10.4508 16.2306 10.3888C16.3113 10.2463 16.325 10.2468 16.2795 10.3959ZM18.9128 10.3998C18.7538 11.2172 18.7008 11.5359 18.6411 12.046C18.6103 12.3049 18.5808 12.4832 18.57 12.4455C18.5467 12.3266 18.5879 11.7222 18.6469 11.3474C18.7027 10.9733 18.9766 9.84131 19.0034 9.85716C19.0119 9.86617 18.9712 10.1091 18.9128 10.3998Z" fill="#BC5D1D"/>
<path d="M12.9513 11.4326C12.2377 11.9457 11.2507 13.633 10.9618 14.8329C10.5771 16.4179 10.8478 18.447 11.577 19.4731C11.7725 19.7488 11.9733 19.8946 12.1721 19.9087C12.4086 19.9217 12.6192 19.9955 13.0969 20.2371C13.7544 20.5705 14.1296 20.6588 14.7663 20.6259C15.3455 20.5985 16.3796 20.3146 17.0794 19.9921C18.498 19.339 19.3568 18.0992 19.5836 16.377L19.6129 16.1427L19.5138 16.007C19.2542 15.6503 18.3915 15.0104 17.8452 14.7696C16.9474 14.3691 15.7518 13.6277 15.238 13.1518C15.1414 13.0634 14.995 12.8795 14.9105 12.7479C14.4733 12.0676 13.895 11.5437 13.3817 11.3653C13.1637 11.2894 13.144 11.2938 12.9513 11.4326ZM15.1566 13.7137C15.5641 14.0702 16.1305 14.4645 16.5232 14.6591C16.6911 14.7426 17.0551 14.8958 17.3366 14.9978C17.9375 15.219 18.388 15.4447 18.68 15.6692C19.008 15.9187 19.0278 15.984 18.7169 15.7858C18.39 15.5764 17.9836 15.3997 17.3915 15.2059C17.1604 15.1329 16.8331 15.0081 16.6666 14.9317C16.2853 14.7603 15.6392 14.3105 15.3264 13.9988C15.0871 13.7624 14.796 13.4385 14.8191 13.4333C14.8257 13.4318 14.9781 13.5592 15.1566 13.7137ZM11.6795 14.3924C11.6032 14.685 11.5305 15.3956 11.5266 15.8629C11.5132 17.0119 11.7246 18.2022 12.0577 18.8435C12.2556 19.2178 12.4715 19.3529 13.1039 19.4899C13.3189 19.5334 13.6063 19.6304 13.7437 19.6987C14.0448 19.8478 14.2485 19.8864 14.7139 19.892C15.1925 19.8946 16.3274 19.6506 16.769 19.4485C17.1474 19.2752 17.6028 19.004 17.8824 18.7832C18.3585 18.408 18.8923 17.7334 19.1833 17.1354C19.2907 16.913 19.2555 17.031 19.129 17.3129C18.9773 17.6592 18.6035 18.2208 18.3364 18.5048C17.5501 19.3463 16.4177 19.8984 15.1992 20.0327C14.503 20.112 14.0325 20.0635 13.6894 19.8762C13.6044 19.8292 13.2951 19.7261 13.0012 19.6489C12.5472 19.5269 12.4391 19.485 12.2642 19.3481C11.9322 19.0958 11.7525 18.6917 11.578 17.8091C11.3617 16.7154 11.3751 15.4966 11.6167 14.5094C11.6599 14.3454 11.6981 14.2083 11.708 14.206C11.7178 14.2039 11.7035 14.2879 11.6795 14.3924ZM18.5792 17.3851C18.1138 18.1619 17.3593 18.8162 16.5271 19.1649C16.1078 19.34 15.4187 19.4728 15.033 19.453L14.7721 19.4382L14.9738 19.4149C15.3787 19.3753 16.2827 19.1464 16.5527 19.0159C17.3108 18.6582 18.095 17.9971 18.5818 17.311C18.7399 17.0845 18.7389 17.1141 18.5792 17.3851Z" fill="#BC5D1D"/>
<path d="M13.9004 24.8101C13.8983 24.9782 13.8962 25.1412 13.894 25.2991C13.894 25.3667 13.8929 25.4364 13.8908 25.5082C13.8908 25.5779 13.8898 25.6476 13.8877 25.7173C13.8877 25.787 13.8877 25.8537 13.8877 25.9173C13.8877 25.9788 13.8877 26.0341 13.8877 26.0833C13.8877 26.1859 13.8877 26.3099 13.8877 26.4555C13.8898 26.599 13.8919 26.7466 13.894 26.8983C13.8962 27.0501 13.8993 27.1967 13.9036 27.3381C13.9079 27.4776 13.9132 27.5945 13.9196 27.6888C13.9409 27.6929 13.9686 27.697 14.0027 27.7011C14.0368 27.7031 14.0719 27.7062 14.1082 27.7103C14.1466 27.7123 14.1838 27.7144 14.22 27.7164C14.2563 27.7164 14.2872 27.7164 14.3128 27.7164C14.43 27.7164 14.5482 27.7092 14.6675 27.6949C14.789 27.6805 14.9051 27.6539 15.0159 27.6149C15.1289 27.5739 15.2344 27.5186 15.3324 27.4488C15.4304 27.3791 15.5156 27.29 15.5881 27.1813C15.6627 27.0706 15.7202 26.9383 15.7607 26.7845C15.8033 26.6287 15.8246 26.4452 15.8246 26.234C15.8246 25.7686 15.7085 25.4098 15.4762 25.1576C15.2461 24.9054 14.9019 24.7793 14.4438 24.7793C14.3991 24.7793 14.3511 24.7803 14.3 24.7824C14.251 24.7844 14.2019 24.7875 14.1529 24.7916C14.1039 24.7936 14.057 24.7967 14.0123 24.8008C13.9696 24.8049 13.9324 24.808 13.9004 24.8101ZM13.2388 24.5856C13.2899 24.5876 13.3378 24.5886 13.3826 24.5886C13.421 24.5907 13.4582 24.5917 13.4945 24.5917C13.5307 24.5917 13.5573 24.5917 13.5744 24.5917C13.6042 24.5917 13.6575 24.5907 13.7342 24.5886C13.8109 24.5866 13.8972 24.5845 13.9931 24.5825C14.0911 24.5784 14.1934 24.5753 14.3 24.5732C14.4086 24.5691 14.5088 24.5671 14.6004 24.5671C14.8497 24.5671 15.0874 24.5948 15.3132 24.6501C15.5391 24.7055 15.7373 24.7967 15.9077 24.9239C16.0803 25.0489 16.2167 25.214 16.3169 25.419C16.417 25.622 16.4671 25.8732 16.4671 26.1725C16.4671 26.4944 16.4096 26.7671 16.2945 26.9906C16.1794 27.2141 16.0239 27.3966 15.8278 27.5381C15.6318 27.6775 15.4038 27.779 15.1438 27.8425C14.8859 27.904 14.6132 27.9348 14.3255 27.9348C14.2574 27.9348 14.1721 27.9327 14.0698 27.9287C13.9675 27.9246 13.8631 27.9205 13.7566 27.9164C13.65 27.9122 13.5488 27.9081 13.4529 27.904C13.3592 27.8999 13.2878 27.8979 13.2388 27.8979V27.8856C13.2537 27.8425 13.2665 27.7872 13.2771 27.7195C13.2899 27.6518 13.2995 27.5688 13.3059 27.4704C13.3144 27.3699 13.3208 27.251 13.3251 27.1137C13.3293 26.9762 13.3315 26.8153 13.3315 26.6308V25.8558C13.3315 25.6712 13.3293 25.5103 13.3251 25.3729C13.3208 25.2355 13.3144 25.1166 13.3059 25.0161C13.2995 24.9157 13.2899 24.8316 13.2771 24.7639C13.2665 24.6963 13.2537 24.6409 13.2388 24.5979V24.5856ZM18.8737 26.2925C18.9163 26.2986 18.959 26.3037 19.0016 26.3078C19.0463 26.3099 19.0889 26.3109 19.1294 26.3109C19.3958 26.3109 19.5972 26.2422 19.7335 26.1049C19.872 25.9675 19.9413 25.7614 19.9413 25.4866C19.9413 25.2612 19.8859 25.0827 19.7751 24.9515C19.6664 24.8203 19.5055 24.7547 19.2924 24.7547C19.2243 24.7547 19.1635 24.7578 19.1102 24.7639C19.0591 24.768 19.0154 24.7732 18.9792 24.7793C18.9387 24.7875 18.9035 24.7957 18.8737 24.8039V26.2925ZM19.3628 26.4924C19.3202 26.4985 19.2775 26.5026 19.2349 26.5047C19.1944 26.5047 19.1528 26.5047 19.1102 26.5047C19.0761 26.5047 19.0388 26.5037 18.9984 26.5016C18.9579 26.4995 18.9163 26.4965 18.8737 26.4924V26.6431C18.8737 26.8255 18.8758 26.9855 18.8801 27.1228C18.8843 27.2582 18.8897 27.375 18.8961 27.4735C18.9046 27.5719 18.9142 27.6549 18.9249 27.7226C18.9355 27.7882 18.9483 27.8425 18.9632 27.8856V27.8979H18.2249V27.8856C18.2398 27.8425 18.2525 27.7872 18.2632 27.7195C18.276 27.6518 18.2856 27.5688 18.292 27.4704C18.3005 27.3699 18.3069 27.251 18.3112 27.1137C18.3154 26.9762 18.3176 26.8153 18.3176 26.6308V25.8558C18.3176 25.6712 18.3154 25.5113 18.3112 25.3759C18.3069 25.2386 18.3005 25.1207 18.292 25.0223C18.2856 24.9218 18.276 24.8377 18.2632 24.7701C18.2525 24.7024 18.2398 24.647 18.2249 24.604V24.5917C18.259 24.5938 18.2952 24.5958 18.3335 24.5979C18.3655 24.5999 18.4006 24.6019 18.439 24.604C18.4795 24.604 18.52 24.604 18.5605 24.604C18.6287 24.604 18.7299 24.5979 18.8641 24.5856C18.9984 24.5732 19.1561 24.5671 19.3372 24.5671C19.5205 24.5671 19.6866 24.5886 19.8358 24.6317C19.9871 24.6747 20.1161 24.7363 20.2226 24.8162C20.3313 24.8961 20.4143 24.9936 20.4719 25.1084C20.5316 25.2232 20.5614 25.3513 20.5614 25.4928C20.5614 25.6035 20.5454 25.7051 20.5135 25.7973C20.4815 25.8875 20.4367 25.9695 20.3792 26.0433C20.3217 26.1151 20.2535 26.1787 20.1746 26.234C20.0958 26.2894 20.0084 26.3375 19.9125 26.3786L20.5806 27.2859C20.6381 27.3597 20.6957 27.4304 20.7532 27.4981C20.8128 27.5657 20.8693 27.6262 20.9226 27.6795C20.9758 27.7328 21.0259 27.778 21.0728 27.8149C21.1197 27.8497 21.1591 27.8733 21.1911 27.8856V27.8979H20.3536C20.3536 27.8794 20.3398 27.8477 20.3121 27.8026C20.2865 27.7554 20.2556 27.7072 20.2194 27.658C20.1853 27.6067 20.1502 27.5576 20.1139 27.5104C20.0798 27.4632 20.0543 27.4284 20.0372 27.4058L19.3628 26.4924ZM22.6899 25.8558C22.6899 25.6712 22.6878 25.5113 22.6835 25.3759C22.6793 25.2386 22.6729 25.1207 22.6644 25.0223C22.6579 24.9218 22.6484 24.8377 22.6356 24.7701C22.6249 24.7024 22.6122 24.647 22.5972 24.604V24.5917H23.3388V24.604C23.3238 24.647 23.31 24.7024 23.2972 24.7701C23.2866 24.8377 23.277 24.9218 23.2685 25.0223C23.2621 25.1207 23.2567 25.2386 23.2525 25.3759C23.2482 25.5113 23.2461 25.6712 23.2461 25.8558V26.6308C23.2461 26.8153 23.2482 26.9762 23.2525 27.1137C23.2567 27.251 23.2621 27.3699 23.2685 27.4704C23.277 27.5688 23.2866 27.6518 23.2972 27.7195C23.31 27.7872 23.3238 27.8425 23.3388 27.8856V27.8979H22.5972V27.8856C22.6122 27.8425 22.6249 27.7872 22.6356 27.7195C22.6484 27.6518 22.6579 27.5688 22.6644 27.4704C22.6729 27.3699 22.6793 27.251 22.6835 27.1137C22.6878 26.9762 22.6899 26.8153 22.6899 26.6308V25.8558ZM25.3075 24.5917C25.5163 24.5917 25.7305 24.5917 25.9499 24.5917C26.1695 24.5897 26.3729 24.5876 26.5605 24.5856C26.748 24.5814 26.9088 24.5773 27.0431 24.5732C27.1795 24.5691 27.269 24.563 27.3116 24.5548L27.187 24.887C27.1294 24.8726 27.0644 24.8592 26.992 24.847C26.9281 24.8367 26.8503 24.8275 26.7587 24.8193C26.6691 24.809 26.5647 24.8039 26.4454 24.8039C26.4028 24.8039 26.3538 24.806 26.2984 24.8101C26.2429 24.8121 26.1897 24.8152 26.1385 24.8193C26.0789 24.8234 26.0181 24.8275 25.9563 24.8316V26.0464C26.129 26.0444 26.2845 26.0403 26.423 26.0341C26.5615 26.028 26.6798 26.0198 26.7778 26.0095C26.8929 26.0013 26.9941 25.99 27.0814 25.9757L27.0047 26.3417C26.8876 26.3273 26.7693 26.315 26.6499 26.3047C26.5477 26.2945 26.4347 26.2863 26.3111 26.2802C26.1876 26.2719 26.0693 26.2678 25.9563 26.2678V27.6642C26.1545 27.6642 26.3367 27.657 26.5029 27.6426C26.6691 27.6262 26.814 27.6088 26.9377 27.5904C27.0825 27.5678 27.2136 27.5422 27.3308 27.5135L27.2573 27.9164C27.2253 27.9143 27.1731 27.9112 27.1006 27.9071C27.0303 27.9051 26.9558 27.903 26.8769 27.901C26.8002 27.901 26.7277 27.8999 26.6595 27.8979C26.5914 27.8979 26.5445 27.8979 26.5189 27.8979H25.3075V27.8856C25.3224 27.8425 25.3352 27.7872 25.3458 27.7195C25.3586 27.6518 25.3682 27.5688 25.3746 27.4704C25.3832 27.3699 25.3895 27.251 25.3938 27.1137C25.398 26.9762 25.4002 26.8153 25.4002 26.6308V25.8558C25.4002 25.6712 25.398 25.5113 25.3938 25.3759C25.3895 25.2386 25.3832 25.1207 25.3746 25.0223C25.3682 24.9218 25.3586 24.8377 25.3458 24.7701C25.3352 24.7024 25.3224 24.647 25.3075 24.604V24.5917ZM29.7853 24.8101C29.7832 24.9782 29.7811 25.1412 29.779 25.2991C29.779 25.3667 29.7779 25.4364 29.7757 25.5082C29.7757 25.5779 29.7747 25.6476 29.7726 25.7173C29.7726 25.787 29.7726 25.8537 29.7726 25.9173C29.7726 25.9788 29.7726 26.0341 29.7726 26.0833C29.7726 26.1859 29.7726 26.3099 29.7726 26.4555C29.7747 26.599 29.7768 26.7466 29.779 26.8983C29.7811 27.0501 29.7843 27.1967 29.7886 27.3381C29.7928 27.4776 29.7981 27.5945 29.8045 27.6888C29.8258 27.6929 29.8535 27.697 29.8876 27.7011C29.9217 27.7031 29.9569 27.7062 29.9931 27.7103C30.0315 27.7123 30.0687 27.7144 30.105 27.7164C30.1412 27.7164 30.1721 27.7164 30.1977 27.7164C30.3149 27.7164 30.4331 27.7092 30.5525 27.6949C30.6739 27.6805 30.7901 27.6539 30.9009 27.6149C31.0138 27.5739 31.1193 27.5186 31.2173 27.4488C31.3153 27.3791 31.4006 27.29 31.4731 27.1813C31.5476 27.0706 31.6051 26.9383 31.6457 26.7845C31.6883 26.6287 31.7096 26.4452 31.7096 26.234C31.7096 25.7686 31.5934 25.4098 31.3612 25.1576C31.131 24.9054 30.7868 24.7793 30.3287 24.7793C30.284 24.7793 30.236 24.7803 30.1849 24.7824C30.1359 24.7844 30.0868 24.7875 30.0379 24.7916C29.9889 24.7936 29.942 24.7967 29.8972 24.8008C29.8546 24.8049 29.8173 24.808 29.7853 24.8101ZM29.1237 24.5856C29.1749 24.5876 29.2228 24.5886 29.2675 24.5886C29.3059 24.5907 29.3432 24.5917 29.3794 24.5917C29.4156 24.5917 29.4423 24.5917 29.4593 24.5917C29.4891 24.5917 29.5424 24.5907 29.6191 24.5886C29.6958 24.5866 29.7822 24.5845 29.878 24.5825C29.9761 24.5784 30.0783 24.5753 30.1849 24.5732C30.2936 24.5691 30.3937 24.5671 30.4853 24.5671C30.7346 24.5671 30.9723 24.5948 31.1982 24.6501C31.424 24.7055 31.6222 24.7967 31.7927 24.9239C31.9653 25.0489 32.1016 25.214 32.2018 25.419C32.302 25.622 32.352 25.8732 32.352 26.1725C32.352 26.4944 32.2945 26.7671 32.1794 26.9906C32.0643 27.2141 31.9088 27.3966 31.7127 27.5381C31.5167 27.6775 31.2887 27.779 31.0287 27.8425C30.7709 27.904 30.4982 27.9348 30.2105 27.9348C30.1423 27.9348 30.0571 27.9327 29.9548 27.9287C29.8525 27.9246 29.7481 27.9205 29.6415 27.9164C29.535 27.9122 29.4338 27.9081 29.3379 27.904C29.2441 27.8999 29.1727 27.8979 29.1237 27.8979V27.8856C29.1386 27.8425 29.1514 27.7872 29.162 27.7195C29.1749 27.6518 29.1844 27.5688 29.1908 27.4704C29.1994 27.3699 29.2057 27.251 29.21 27.1137C29.2142 26.9762 29.2164 26.8153 29.2164 26.6308V25.8558C29.2164 25.6712 29.2142 25.5103 29.21 25.3729C29.2057 25.2355 29.1994 25.1166 29.1908 25.0161C29.1844 24.9157 29.1749 24.8316 29.162 24.7639C29.1514 24.6963 29.1386 24.6409 29.1237 24.5979V24.5856ZM37.8013 26.6308C37.8013 26.8153 37.8035 26.9762 37.8077 27.1137C37.812 27.251 37.8173 27.3699 37.8237 27.4704C37.8322 27.5688 37.8418 27.6518 37.8524 27.7195C37.8631 27.7872 37.8759 27.8425 37.8908 27.8856V27.8979H37.1524V27.8856C37.1674 27.8425 37.1802 27.7872 37.1908 27.7195C37.2036 27.6518 37.2132 27.5688 37.2196 27.4704C37.2281 27.3699 37.2345 27.251 37.2387 27.1137C37.243 26.9762 37.2452 26.8153 37.2452 26.6308V25.8558C37.2452 25.6712 37.243 25.5113 37.2387 25.3759C37.2345 25.2386 37.2281 25.1207 37.2196 25.0223C37.2132 24.9218 37.2036 24.8377 37.1908 24.7701C37.1802 24.7024 37.1674 24.647 37.1524 24.604V24.5917C37.291 24.5917 37.4338 24.5917 37.5808 24.5917C37.7299 24.5917 37.8759 24.5917 38.0187 24.5917C38.1636 24.5897 38.301 24.5876 38.431 24.5856C38.5631 24.5835 38.6814 24.5814 38.7858 24.5794C38.8924 24.5753 38.9829 24.5722 39.0575 24.5702C39.1321 24.566 39.1843 24.561 39.2141 24.5548L39.0831 24.887C39.0277 24.8726 38.9637 24.8592 38.8913 24.847C38.8295 24.8367 38.7517 24.8275 38.658 24.8193C38.5663 24.809 38.4619 24.8039 38.3447 24.8039C38.3021 24.8039 38.2499 24.806 38.1881 24.8101C38.1284 24.8121 38.0698 24.8152 38.0123 24.8193C37.9441 24.8234 37.8738 24.8275 37.8013 24.8316V25.9511C37.9739 25.949 38.1316 25.9449 38.2744 25.9388C38.4172 25.9306 38.5408 25.9224 38.6452 25.9142C38.7666 25.906 38.8753 25.8957 38.9712 25.8834L38.9009 26.2525C38.7751 26.2381 38.6484 26.2248 38.5205 26.2125C38.4118 26.2022 38.2925 26.193 38.1625 26.1848C38.0347 26.1766 37.9143 26.1725 37.8013 26.1725V26.6308ZM41.4641 26.2925C41.5067 26.2986 41.5493 26.3037 41.5919 26.3078C41.6367 26.3099 41.6793 26.3109 41.7198 26.3109C41.9862 26.3109 42.1875 26.2422 42.3239 26.1049C42.4624 25.9675 42.5317 25.7614 42.5317 25.4866C42.5317 25.2612 42.4763 25.0827 42.3655 24.9515C42.2568 24.8203 42.0959 24.7547 41.8828 24.7547C41.8146 24.7547 41.7539 24.7578 41.7007 24.7639C41.6495 24.768 41.6058 24.7732 41.5696 24.7793C41.5291 24.7875 41.4939 24.7957 41.4641 24.8039V26.2925ZM41.9531 26.4924C41.9105 26.4985 41.8679 26.5026 41.8253 26.5047C41.7848 26.5047 41.7433 26.5047 41.7007 26.5047C41.6666 26.5047 41.6293 26.5037 41.5888 26.5016C41.5483 26.4995 41.5067 26.4965 41.4641 26.4924V26.6431C41.4641 26.8255 41.4663 26.9855 41.4705 27.1228C41.4748 27.2582 41.4801 27.375 41.4865 27.4735C41.495 27.5719 41.5046 27.6549 41.5152 27.7226C41.5259 27.7882 41.5387 27.8425 41.5536 27.8856V27.8979H40.8152V27.8856C40.8302 27.8425 40.843 27.7872 40.8536 27.7195C40.8664 27.6518 40.876 27.5688 40.8824 27.4704C40.8909 27.3699 40.8973 27.251 40.9015 27.1137C40.9058 26.9762 40.9079 26.8153 40.9079 26.6308V25.8558C40.9079 25.6712 40.9058 25.5113 40.9015 25.3759C40.8973 25.2386 40.8909 25.1207 40.8824 25.0223C40.876 24.9218 40.8664 24.8377 40.8536 24.7701C40.843 24.7024 40.8302 24.647 40.8152 24.604V24.5917C40.8493 24.5938 40.8856 24.5958 40.9239 24.5979C40.9559 24.5999 40.9911 24.6019 41.0294 24.604C41.0699 24.604 41.1104 24.604 41.1508 24.604C41.219 24.604 41.3203 24.5979 41.4545 24.5856C41.5888 24.5732 41.7464 24.5671 41.9276 24.5671C42.1108 24.5671 42.2771 24.5886 42.4262 24.6317C42.5775 24.6747 42.7064 24.7363 42.813 24.8162C42.9216 24.8961 43.0048 24.9936 43.0623 25.1084C43.1219 25.2232 43.1518 25.3513 43.1518 25.4928C43.1518 25.6035 43.1358 25.7051 43.1038 25.7973C43.0719 25.8875 43.0271 25.9695 42.9696 26.0433C42.9121 26.1151 42.8439 26.1787 42.765 26.234C42.6862 26.2894 42.5988 26.3375 42.503 26.3786L43.171 27.2859C43.2285 27.3597 43.286 27.4304 43.3436 27.4981C43.4032 27.5657 43.4597 27.6262 43.513 27.6795C43.5663 27.7328 43.6163 27.778 43.6632 27.8149C43.7101 27.8497 43.7495 27.8733 43.7815 27.8856V27.8979H42.9441C42.9441 27.8794 42.9302 27.8477 42.9025 27.8026C42.8769 27.7554 42.846 27.7072 42.8098 27.658C42.7757 27.6067 42.7405 27.5576 42.7043 27.5104C42.6702 27.4632 42.6446 27.4284 42.6276 27.4058L41.9531 26.4924ZM47.7927 25.8434C47.7927 25.661 47.7916 25.502 47.7895 25.3667C47.7873 25.2314 47.7831 25.1146 47.7767 25.0161C47.7703 24.9177 47.7628 24.8357 47.7543 24.7701C47.7458 24.7024 47.7351 24.647 47.7223 24.604V24.5917H48.1922V24.604C48.1794 24.647 48.1688 24.7024 48.1603 24.7701C48.1517 24.8377 48.1443 24.9218 48.1379 25.0223C48.1315 25.1207 48.1272 25.2386 48.1251 25.3759C48.1229 25.5113 48.1219 25.6712 48.1219 25.8558V26.7384C48.1219 26.9599 48.0857 27.1485 48.0132 27.3043C47.9429 27.4601 47.8449 27.5883 47.7192 27.6888C47.5934 27.7872 47.4432 27.8589 47.2684 27.904C47.0958 27.9512 46.9062 27.9748 46.6995 27.9748C46.4907 27.9748 46.2968 27.9522 46.1177 27.9071C45.9388 27.864 45.7832 27.7943 45.6511 27.698C45.5211 27.6016 45.4177 27.4766 45.341 27.3228C45.2665 27.169 45.2292 26.9824 45.2292 26.763V25.8558C45.2292 25.6712 45.227 25.5113 45.2228 25.3759C45.2185 25.2386 45.2121 25.1207 45.2036 25.0223C45.1951 24.9218 45.1855 24.8377 45.1748 24.7701C45.1642 24.7024 45.1514 24.647 45.1365 24.604V24.5917H45.8748V24.604C45.8599 24.647 45.8471 24.7024 45.8365 24.7701C45.8258 24.8357 45.8162 24.9177 45.8077 25.0161C45.8013 25.1146 45.796 25.2314 45.7917 25.3667C45.7875 25.502 45.7854 25.661 45.7854 25.8434V26.763C45.7854 26.9455 45.8141 27.0962 45.8717 27.2151C45.9292 27.332 46.0048 27.4253 46.0986 27.495C46.1924 27.5647 46.2989 27.6139 46.4182 27.6426C46.5376 27.6693 46.6601 27.6826 46.7858 27.6826C46.9137 27.6826 47.0373 27.6693 47.1566 27.6426C47.2781 27.6139 47.3857 27.5647 47.4794 27.495C47.5753 27.4253 47.651 27.332 47.7064 27.2151C47.7639 27.0962 47.7927 26.9455 47.7927 26.763V25.8434ZM50.2219 25.8558C50.2219 25.6712 50.2197 25.5113 50.2153 25.3759C50.2109 25.2386 50.2044 25.1207 50.1962 25.0223C50.1897 24.9218 50.1799 24.8377 50.1673 24.7701C50.1564 24.7024 50.1439 24.647 50.1291 24.604V24.5917H50.8705V24.604C50.8557 24.647 50.8416 24.7024 50.829 24.7701C50.8181 24.8377 50.8088 24.9218 50.8001 25.0223C50.7936 25.1207 50.7887 25.2386 50.7843 25.3759C50.7799 25.5113 50.7777 25.6712 50.7777 25.8558V26.6308C50.7777 26.8153 50.7799 26.9762 50.7843 27.1137C50.7887 27.251 50.7936 27.3699 50.8001 27.4704C50.8088 27.5688 50.8181 27.6518 50.829 27.7195C50.8416 27.7872 50.8557 27.8425 50.8705 27.8856V27.8979H50.1291V27.8856C50.1439 27.8425 50.1564 27.7872 50.1673 27.7195C50.1799 27.6518 50.1897 27.5688 50.1962 27.4704C50.2044 27.3699 50.2109 27.251 50.2153 27.1137C50.2197 26.9762 50.2219 26.8153 50.2219 26.6308V25.8558ZM53.7181 24.8193C53.5244 24.8193 53.3477 24.8275 53.1878 24.8439C53.0302 24.8603 52.8938 24.8777 52.7787 24.8961C52.6461 24.9187 52.5272 24.9433 52.4203 24.97L52.4847 24.5732C52.5163 24.5773 52.5687 24.5804 52.6412 24.5825C52.7132 24.5845 52.7891 24.5866 52.8682 24.5886C52.9489 24.5886 53.0247 24.5897 53.0951 24.5917C53.1676 24.5917 53.2173 24.5917 53.2451 24.5917H54.7573C54.7824 24.5917 54.8293 24.5917 54.8975 24.5917C54.9678 24.5897 55.0426 24.5886 55.1217 24.5886C55.2002 24.5866 55.276 24.5845 55.3486 24.5825C55.4206 24.5804 55.473 24.5773 55.5052 24.5732L55.569 24.97C55.4664 24.9433 55.3497 24.9187 55.2171 24.8961C55.1042 24.8777 54.9678 24.8603 54.808 24.8439C54.6503 24.8275 54.4725 24.8193 54.2745 24.8193V26.6308C54.2745 26.8153 54.2767 26.9762 54.281 27.1137C54.2848 27.251 54.2903 27.3699 54.2968 27.4704C54.305 27.5688 54.3149 27.6518 54.3258 27.7195C54.3361 27.7872 54.3492 27.8425 54.3639 27.8856V27.8979H53.6253V27.8856C53.6406 27.8425 53.6531 27.7872 53.6641 27.7195C53.6744 27.6518 53.6842 27.5688 53.6924 27.4704C53.7011 27.3699 53.7077 27.251 53.7121 27.1137C53.7159 26.9762 53.7181 26.8153 53.7181 26.6308V24.8193ZM58.6277 25.2345H58.5639C58.5508 25.1996 58.5295 25.1555 58.4995 25.1022C58.4722 25.0489 58.4335 24.9967 58.3849 24.9454C58.338 24.8941 58.2791 24.8511 58.2087 24.8162C58.1384 24.7793 58.0543 24.7608 57.9562 24.7608C57.882 24.7608 57.8149 24.7732 57.7549 24.7978C57.6976 24.8203 57.6485 24.8521 57.6081 24.8931C57.5672 24.9341 57.5367 24.9833 57.5154 25.0407C57.4941 25.0961 57.4832 25.1565 57.4832 25.2222C57.4832 25.3288 57.5165 25.4303 57.5825 25.5266C57.6507 25.623 57.7347 25.7194 57.835 25.8158C57.9349 25.9101 58.044 26.0054 58.1607 26.1018C58.278 26.1981 58.3866 26.2986 58.4869 26.4032C58.5873 26.5078 58.6702 26.6185 58.7362 26.7354C58.8044 26.8522 58.8388 26.9773 58.8388 27.1106C58.8388 27.209 58.8192 27.3105 58.781 27.415C58.745 27.5196 58.685 27.6139 58.602 27.698C58.5191 27.782 58.4122 27.8508 58.2824 27.904C58.1525 27.9594 57.9949 27.9871 57.8094 27.9871C57.7069 27.9871 57.6092 27.9789 57.5154 27.9625C57.4237 27.9461 57.3386 27.9256 57.2595 27.901C57.1826 27.8784 57.1133 27.8538 57.0517 27.8271C56.9922 27.7984 56.942 27.7718 56.9017 27.7472L56.959 27.1659H57.0261C57.0473 27.2377 57.0784 27.3094 57.1188 27.3812C57.1613 27.4529 57.2126 27.5186 57.2721 27.578C57.3343 27.6354 57.4057 27.6826 57.4865 27.7195C57.5694 27.7544 57.6643 27.7718 57.7712 27.7718C57.8454 27.7718 57.9158 27.7605 57.9818 27.738C58.0478 27.7133 58.1045 27.6795 58.1515 27.6365C58.2005 27.5934 58.2387 27.5411 58.2666 27.4796C58.2944 27.416 58.308 27.3453 58.308 27.2674C58.308 27.1751 58.2889 27.09 58.2502 27.0121C58.212 26.9322 58.1607 26.8563 58.0969 26.7845C58.0331 26.7107 57.9605 26.64 57.8798 26.5723C57.8007 26.5047 57.7189 26.436 57.6338 26.3663C57.5481 26.2966 57.4652 26.2259 57.3845 26.154C57.3054 26.0802 57.2339 26.0013 57.1701 25.9173C57.1062 25.8332 57.055 25.744 57.0168 25.6497C56.978 25.5533 56.959 25.4477 56.959 25.3329C56.959 25.2119 56.9857 25.1033 57.0391 25.0069C57.0921 24.9105 57.1624 24.8295 57.2497 24.7639C57.3375 24.6963 57.4374 24.645 57.5503 24.6101C57.6632 24.5732 57.7805 24.5548 57.9021 24.5548C57.9916 24.5548 58.0745 24.561 58.1515 24.5732C58.23 24.5856 58.3004 24.6009 58.3626 24.6194C58.4264 24.6358 58.4815 24.6532 58.5284 24.6717C58.5753 24.6881 58.6135 24.7014 58.6435 24.7116L58.6277 25.2345Z" fill="#BC5D1D"/>
<path d="M2.94202 7.85429V2H71.5872V7.88387" stroke="#FEB302" stroke-opacity="0.7" stroke-width="3" stroke-linecap="round"/>
<path d="M2.94202 21.1226V26.0258H10.7872" stroke="#FEB302" stroke-opacity="0.7" stroke-width="3" stroke-linecap="round"/>
<path d="M72.0775 21.6129V26.0258H61.2904" stroke="#FEB302" stroke-opacity="0.7" stroke-width="3"/>
</svg>
