<svg width="320" height="118" viewBox="0 0 320 118" fill="none" xmlns="http://www.w3.org/2000/svg">
<path d="M104.274 49.9492C104.376 49.4364 104.444 49.0264 104.478 48.7188C104.512 48.3772 104.393 48.0183 104.121 47.6423C104.257 47.0955 104.359 46.6685 104.427 46.3609C104.528 46.0533 104.545 45.626 104.478 45.0793C104.783 44.1907 105.241 43.439 105.852 42.8238C106.497 42.2086 107.193 41.6961 107.94 41.286C108.687 40.8417 109.467 40.4829 110.282 40.2095C111.096 39.9019 111.86 39.6456 112.573 39.4407C112.573 39.304 112.505 39.2355 112.369 39.2355C112.234 39.2355 112.2 39.1501 112.268 38.9792C114.1 38.6375 115.933 38.142 117.766 37.4926C119.633 36.8434 121.534 36.2624 123.469 35.7499C125.403 35.2372 127.389 34.9296 129.426 34.8271C131.462 34.6904 133.601 34.9468 135.841 35.596C135.977 36.0061 136.163 36.3991 136.401 36.7749C136.639 37.151 136.876 37.5268 137.114 37.9029C137.385 38.2445 137.623 38.5863 137.827 38.9279C138.03 39.2697 138.149 39.6286 138.183 40.0044C138.59 40.3805 138.913 40.7905 139.15 41.2348C139.422 41.6449 139.473 42.2086 139.303 42.9263C138.93 43.1997 138.539 43.473 138.132 43.7466C137.725 44.02 137.301 44.2761 136.859 44.5155C135.332 44.1395 133.804 44.0028 132.277 44.1054C130.749 44.2079 129.375 44.3274 128.153 44.4643C127.779 44.054 127.338 43.8661 126.829 43.9003C126.32 43.9003 125.777 43.9858 125.2 44.1567C124.657 44.2934 124.114 44.447 123.571 44.618C123.027 44.7546 122.518 44.7889 122.043 44.7204C121.67 45.0622 121.177 45.3014 120.567 45.4381C119.956 45.5405 119.311 45.626 118.632 45.6944C118.598 45.8654 118.632 45.9848 118.734 46.0533C118.835 46.1215 118.852 46.2582 118.785 46.4633C119.022 46.7709 119.345 46.9931 119.752 47.1298C120.159 47.2322 120.567 47.3347 120.974 47.4374C121.415 47.5398 121.805 47.6935 122.145 47.8987C122.484 48.0696 122.705 48.3599 122.807 48.77C123.418 48.8042 123.944 48.9751 124.385 49.2827C124.826 49.5561 125.2 49.8977 125.505 50.308C125.811 50.7181 126.031 51.1623 126.167 51.6406C126.303 52.0849 126.354 52.495 126.32 52.871C126.456 53.2126 126.592 53.3493 126.727 53.2811C126.897 53.2126 127.084 53.2981 127.287 53.5372C127.423 54.05 127.728 54.5967 128.204 55.1777C128.713 55.7244 129.103 56.3224 129.375 56.9718C129.443 57.9971 129.494 58.9197 129.527 59.7398C129.595 60.5601 129.46 61.3632 129.12 62.1491C128.543 63.6529 127.712 65.0028 126.625 66.1987C125.539 67.3949 124.3 68.4542 122.909 69.377C121.551 70.2655 120.108 71.0514 118.581 71.7349C117.053 72.3843 115.543 72.931 114.05 73.3753C113.914 73.3411 113.744 73.3411 113.54 73.3753C113.371 73.4095 113.337 73.3069 113.439 73.0677C113.133 73.3411 112.777 73.512 112.369 73.5802C111.996 73.6487 111.572 73.6657 111.096 73.6317C110.655 73.6317 110.197 73.6145 109.722 73.5802C109.281 73.5462 108.839 73.5632 108.398 73.6317C108.126 73.3581 107.872 73.0847 107.634 72.8113C107.431 72.538 107.261 72.2134 107.125 71.8375C106.955 71.8033 106.871 71.7008 106.871 71.5299C106.905 71.3248 106.837 71.2223 106.667 71.2223C106.667 71.0857 106.684 70.9832 106.718 70.9147C106.752 70.8465 106.786 70.7781 106.82 70.7098C106.955 70.6071 107.006 70.5389 106.972 70.5047C106.972 70.4362 106.921 70.385 106.82 70.351C106.752 70.2825 106.667 70.2143 106.565 70.1459C106.497 70.0774 106.48 69.9922 106.514 69.8895C106.684 69.5819 106.735 69.2231 106.667 68.813C106.633 68.3687 106.599 67.9246 106.565 67.4804C106.531 67.0361 106.565 66.626 106.667 66.25C106.769 65.8399 107.057 65.4983 107.532 65.2247C108.924 65.3616 110.231 65.2932 111.453 65.0198C112.709 64.7464 113.88 64.3704 114.966 63.8921C116.086 63.4136 117.138 62.901 118.123 62.3543C119.141 61.7733 120.125 61.2436 121.076 60.7651C121.177 60.4235 121.33 60.1329 121.534 59.8937C121.772 59.6546 122.009 59.4324 122.247 59.2273C122.484 58.9881 122.705 58.7488 122.909 58.5096C123.112 58.2363 123.265 57.9116 123.367 57.5356C123.401 57.3989 123.401 57.2965 123.367 57.2282C123.333 57.1598 123.282 57.1085 123.214 57.0743C123.146 57.0061 123.078 56.9376 123.01 56.8694C122.943 56.8009 122.909 56.6985 122.909 56.5618C122.807 56.5276 122.705 56.4933 122.603 56.4591C122.535 56.4251 122.467 56.4079 122.4 56.4079C121.517 55.9636 120.583 55.5878 119.599 55.2802C118.615 54.9726 117.783 54.631 117.104 54.2549C116.697 54.5283 116.29 54.5967 115.882 54.46C115.475 54.3234 114.983 54.1867 114.406 54.05C112.98 53.9815 111.622 53.8448 110.333 53.6399C109.077 53.4348 107.855 53.076 106.667 52.5634C106.599 52.3583 106.514 52.1874 106.412 52.0507C106.31 51.88 106.073 51.8286 105.7 51.897C105.462 51.5552 105.207 51.2476 104.936 50.9742C104.698 50.6668 104.478 50.325 104.274 49.9492ZM136.342 73.6829C135.867 73.3753 135.493 72.9823 135.222 72.5037C134.916 72.0255 134.679 71.5127 134.509 70.966C134.305 70.4192 134.153 69.8555 134.051 69.2745C133.915 68.6593 133.779 68.0783 133.643 67.5316C133.643 67.0531 133.745 66.7115 133.949 66.5063C134.153 66.2672 134.373 66.045 134.611 65.8399C135.426 65.8057 136.155 65.7374 136.8 65.635C137.445 65.5323 138.073 65.4298 138.684 65.3274C139.295 65.2247 139.906 65.1395 140.517 65.071C141.128 64.9685 141.79 64.9173 142.503 64.9173C143.012 63.8578 143.487 62.8498 143.928 61.8928C144.369 60.9018 144.794 59.962 145.201 59.0736C145.405 58.2192 145.659 57.4331 145.965 56.7155C146.304 55.9636 146.627 55.2632 146.932 54.6137C147.238 53.9303 147.509 53.2639 147.747 52.6147C147.984 51.9312 148.137 51.2136 148.205 50.4617C148.612 49.2655 148.969 48.172 149.274 47.181C149.614 46.1557 149.868 44.9426 150.038 43.5415C148.748 43.7466 147.713 43.9515 146.932 44.1567C146.151 44.3274 145.591 44.4983 145.252 44.6692C144.573 44.635 144.03 44.4983 143.623 44.2591C143.249 44.02 142.944 43.7294 142.706 43.3878C142.469 43.046 142.265 42.6529 142.095 42.2086C141.925 41.7643 141.722 41.303 141.484 40.8247C141.62 40.5171 141.654 40.0729 141.586 39.4919C141.518 38.8767 141.315 38.4324 140.975 38.159C141.247 38.0908 141.45 37.8687 141.586 37.4926C141.722 37.0825 141.739 36.7749 141.637 36.57C142.214 36.3991 142.825 36.2967 143.47 36.2624C144.115 36.1942 144.743 36.1427 145.354 36.1087C145.999 36.0403 146.61 35.972 147.187 35.9036C147.764 35.8011 148.256 35.6132 148.663 35.3396C150.428 35.2714 152.261 35.2029 154.162 35.1347C156.097 35.0663 157.879 34.981 159.508 34.8783C160.119 35.0835 160.815 35.1859 161.596 35.1859C162.41 35.1859 163.208 35.2372 163.989 35.3396C164.803 35.4423 165.516 35.6644 166.127 36.0061C166.772 36.3479 167.213 36.9459 167.451 37.8002C167.96 37.8687 168.333 38.0053 168.571 38.2103C168.842 38.4154 169.012 38.6718 169.08 38.9792C169.148 39.2527 169.165 39.5773 169.131 39.9532C169.131 40.295 169.131 40.6366 169.131 40.9784C168.588 41.3885 167.892 41.7303 167.043 42.0037C166.229 42.2428 165.329 42.448 164.345 42.6187C163.36 42.7556 162.325 42.858 161.239 42.9263C160.187 42.9605 159.152 42.9947 158.133 43.029C157.964 44.1567 157.658 45.4893 157.217 47.0273C156.81 48.5309 156.385 50.0174 155.944 51.4869C155.503 52.9223 155.112 54.2209 154.773 55.3826C154.467 56.5106 154.332 57.2452 154.366 57.587C154.026 58.3729 153.738 59.0394 153.5 59.5861C153.296 60.1329 153.093 60.6456 152.889 61.1239C152.719 61.6024 152.533 62.0809 152.329 62.5592C152.159 63.0035 151.939 63.516 151.667 64.097H155.129C155.197 64.473 155.35 64.7292 155.588 64.8661C155.825 65.0028 156.08 65.1222 156.351 65.2247C156.623 65.3274 156.86 65.4641 157.064 65.635C157.302 65.7717 157.42 66.0108 157.42 66.3526C158.065 66.5233 158.473 66.7797 158.643 67.1215C158.812 67.4631 158.846 67.8392 158.744 68.2492C158.677 68.6251 158.507 69.0181 158.235 69.4282C157.997 69.8382 157.76 70.1971 157.522 70.5047C157.217 70.4362 156.928 70.5217 156.657 70.761C156.385 70.966 156.131 71.2053 155.893 71.4787C154.909 71.342 153.941 71.3248 152.991 71.4275C152.041 71.5299 151.158 71.6154 150.343 71.6836C150.174 71.7179 150.106 71.8203 150.14 71.9912C150.174 72.1279 150.14 72.2304 150.038 72.2988C148.986 71.957 147.899 71.8203 146.779 71.8888C145.693 71.957 144.573 72.1279 143.419 72.4013C142.299 72.6404 141.145 72.8968 139.957 73.1702C138.769 73.4778 137.564 73.6487 136.342 73.6829ZM173.399 68.2492C173.06 68.5226 172.856 68.8814 172.789 69.3257C172.721 69.7358 172.636 70.1458 172.534 70.5559C172.432 70.966 172.246 71.3248 171.974 71.6324C171.736 71.9058 171.295 72.0254 170.65 71.9912C170.514 72.1621 170.48 72.2646 170.548 72.2988C170.65 72.3331 170.735 72.4867 170.803 72.7601C170.328 72.6919 169.988 72.7259 169.785 72.8626C169.581 72.9993 169.326 73.1019 169.021 73.1702C168.24 72.931 167.578 72.5038 167.035 71.8888C166.526 71.2393 166.068 70.5389 165.66 69.787C165.287 69.0351 164.948 68.2663 164.642 67.4804C164.371 66.6942 164.082 66.0108 163.777 65.4298C163.777 65.2932 163.844 65.2419 163.98 65.2761C164.082 65.2761 164.184 65.2761 164.286 65.2761C164.116 64.9343 163.997 64.5585 163.929 64.1484C163.828 63.7041 163.658 63.3453 163.42 63.0719C164.405 60.953 165.457 58.7488 166.577 56.4591C167.697 54.1354 168.817 51.7945 169.937 49.4364C171.091 47.0443 172.228 44.6522 173.349 42.2598C174.503 39.8335 175.606 37.4586 176.658 35.1347C177.609 35.4765 178.525 35.8866 179.407 36.3649C180.324 36.8092 181.155 37.3389 181.902 37.9541C182.649 38.5691 183.277 39.2868 183.786 40.1071C184.329 40.893 184.686 41.7986 184.855 42.8238C184.788 43.0289 184.703 43.0972 184.601 43.029C184.499 42.9605 184.414 42.9947 184.346 43.1314C184.516 43.3363 184.601 43.4902 184.601 43.5927C184.635 43.6612 184.635 43.7466 184.601 43.8491C184.567 43.9173 184.55 44.02 184.55 44.1567C184.55 44.2934 184.635 44.4813 184.804 44.7204C184.635 44.6862 184.516 44.7204 184.448 44.8231C184.38 44.8913 184.261 44.8913 184.092 44.8231C184.261 45.3014 184.312 45.6774 184.244 45.9508C184.176 46.2242 184.075 46.4803 183.939 46.7197C183.803 46.9246 183.684 47.164 183.583 47.4374C183.515 47.6765 183.549 48.0183 183.684 48.4624C183.549 48.4624 183.447 48.4966 183.379 48.5651C183.345 48.5993 183.311 48.6505 183.277 48.7188C183.243 48.7872 183.192 48.8555 183.124 48.9239C183.09 48.9581 183.005 48.9581 182.87 48.9239C182.971 49.8125 183.005 50.7181 182.971 51.6406C182.937 52.5292 182.903 53.452 182.87 54.4088C182.836 55.3314 182.836 56.2884 182.87 57.2794C182.903 58.2705 183.039 59.2957 183.277 60.355C184.736 59.5007 185.908 58.3899 186.79 57.0231C187.707 55.6562 188.419 54.1354 188.928 52.4608C189.472 50.7863 189.879 48.9921 190.15 47.0785C190.456 45.1647 190.761 43.2169 191.067 41.2348C191.44 40.8588 191.729 40.3975 191.932 39.8507C192.17 39.304 192.357 38.74 192.492 38.159C192.662 37.5781 192.815 36.9971 192.951 36.4161C193.12 35.8011 193.341 35.2544 193.613 34.7759C194.224 34.8441 194.733 35.0322 195.14 35.3396C195.581 35.6132 195.989 35.9378 196.362 36.3137C196.735 36.6555 197.126 36.9801 197.533 37.2877C197.94 37.5953 198.45 37.8002 199.06 37.9029C199.536 38.5863 199.977 39.2527 200.384 39.9019C200.792 40.5171 201.063 41.2176 201.199 42.0037C200.995 42.3453 200.842 42.7214 200.741 43.1314C200.639 43.5415 200.52 43.9515 200.384 44.3616C200.282 44.7717 200.13 45.1477 199.926 45.4893C199.722 45.8311 199.434 46.1215 199.06 46.3609C198.959 47.3861 198.806 48.3429 198.602 49.2315C198.399 50.1199 198.212 50.9914 198.042 51.8458C197.873 52.7001 197.72 53.5887 197.584 54.5113C197.448 55.4341 197.397 56.4421 197.431 57.5356C197.126 58.5266 196.786 59.5519 196.413 60.6114C196.04 61.6366 195.768 62.5934 195.598 63.482C194.953 63.9945 194.444 64.6267 194.071 65.3786C193.697 66.1305 193.307 66.8822 192.9 67.634C192.73 67.7707 192.628 67.805 192.594 67.7365C192.56 67.634 192.408 67.5658 192.136 67.5316C192.17 67.8392 192.102 68.0441 191.932 68.1466C191.797 68.215 191.814 68.4542 191.983 68.8642C191.406 69.1378 190.897 69.4966 190.456 69.9407C190.015 70.385 189.523 70.7951 188.979 71.1711C188.47 71.5469 187.859 71.8033 187.146 71.94C186.468 72.0425 185.568 71.8888 184.448 71.4787C182.785 70.2483 181.291 68.8302 179.968 67.224C178.644 65.6178 177.591 63.7211 176.811 61.534C176.471 61.6366 176.217 61.8588 176.047 62.2004C175.877 62.5422 175.725 62.901 175.589 63.2769C175.453 63.6529 175.317 63.9945 175.181 64.3021C175.046 64.6097 174.842 64.7634 174.571 64.7634C174.503 65.071 174.367 65.3616 174.163 65.635C173.994 65.8741 173.824 66.1305 173.654 66.4039C173.484 66.643 173.349 66.9164 173.247 67.224C173.179 67.5316 173.23 67.8732 173.399 68.2492ZM205.366 47.6935C205.298 47.2494 205.213 46.9759 205.111 46.8734C205.349 46.2582 205.518 45.6602 205.621 45.0793C205.757 44.4643 205.859 43.8833 205.926 43.3363C205.994 42.858 206.061 42.4138 206.13 42.0037C206.232 41.5936 206.351 41.2006 206.486 40.8247C207.062 40.6881 207.488 40.4487 207.759 40.1071C208.065 39.731 208.301 39.4064 208.472 39.1331C209.083 39.0988 209.473 39.1843 209.642 39.3894C209.846 39.5944 210.067 39.9362 210.305 40.4145C210.474 40.7905 210.712 41.2006 211.018 41.6449C211.323 42.0549 211.781 42.3795 212.393 42.6187C212.495 42.9947 212.614 43.3536 212.749 43.6952C212.885 44.037 213.037 44.3958 213.206 44.7717C213.512 45.4893 213.8 46.2412 214.071 47.0273C214.345 47.779 214.497 48.4966 214.53 49.1801C214.123 49.9662 213.8 50.8717 213.562 51.897C213.36 52.9223 213.223 53.9645 213.156 55.0238C213.122 56.0491 213.156 57.0401 213.258 57.9971C213.36 58.9539 213.529 59.757 213.767 60.4062L214.071 61.2266L215.191 61.1239C216.413 60.8163 217.516 60.4747 218.501 60.0986C219.485 59.6886 220.403 59.2103 221.252 58.6633C222.1 58.1166 222.914 57.5016 223.696 56.8179C224.476 56.1003 225.291 55.2632 226.14 54.3063C226.953 53.3493 227.683 52.2728 228.328 51.0769C228.974 49.8465 229.5 48.5821 229.906 47.2835C230.348 45.9848 230.688 44.6862 230.924 43.3878C231.162 42.0891 231.316 40.876 231.383 39.7483C232.027 39.4407 232.384 38.9451 232.453 38.2617L232.3 37.5953C232.198 37.4244 232.146 37.2705 232.146 37.1338C232.181 36.9631 232.232 36.8092 232.3 36.6725C232.571 35.8866 233.149 35.3056 234.031 34.9296C234.642 35.3396 235.201 35.7839 235.71 36.2624C236.254 36.7409 236.747 37.2192 237.187 37.6977C237.255 38.6205 237.391 39.4234 237.595 40.1071C237.798 40.7563 238.019 41.3885 238.256 42.0037C238.494 42.5847 238.699 43.1484 238.867 43.6952C239.072 44.2421 239.207 44.9083 239.274 45.6944C238.936 46.7197 238.682 47.6935 238.511 48.6163C238.375 49.5049 238.24 50.4447 238.104 51.4357L238.002 51.9995C237.391 53.059 236.78 54.1524 236.169 55.2802C235.591 56.3739 235.118 57.3307 234.742 58.1508C234.54 58.3559 234.352 58.5951 234.183 58.8685C234.048 59.1418 233.912 59.4152 233.777 59.6886C233.708 59.7912 233.606 59.962 233.47 60.2013C233.368 60.4405 233.266 60.6114 233.166 60.7138L231.944 60.2525L231.637 61.8415L230.824 62.0467L230.213 62.7643C229.431 64.1312 228.601 65.2761 227.716 66.1987C226.868 67.1215 225.902 67.9416 224.816 68.6593C223.762 69.377 222.557 70.0604 221.199 70.7098C219.877 71.3248 218.349 71.9912 216.618 72.7089C215.94 72.6064 215.346 72.5552 214.837 72.5552C214.361 72.521 213.886 72.4867 213.41 72.4525C212.935 72.4525 212.476 72.4355 212.036 72.4013C211.594 72.3671 211.085 72.3158 210.507 72.2476C210.372 71.94 210.186 71.7179 209.948 71.5812C209.711 71.4445 209.49 71.376 209.285 71.376C208.607 71.0344 208.099 70.5559 207.759 69.9407C207.419 69.3257 207.062 68.6423 206.689 67.8904C206.52 67.4804 206.332 67.0703 206.13 66.66C205.959 66.25 205.74 65.8571 205.468 65.4811L206.486 65.1735L205.162 63.6357C205.06 63.5332 204.941 63.4308 204.806 63.3281C204.704 63.2256 204.602 63.106 204.5 62.9693V61.9955C204.364 59.1931 204.297 56.613 204.297 54.2549C204.331 51.8628 204.653 49.761 205.264 47.9499L205.366 47.6935ZM240.897 44.1567C240.861 43.8833 240.794 43.6439 240.692 43.439C240.623 43.1996 240.54 42.9435 240.438 42.6701C240.269 42.2599 240.115 41.8158 239.979 41.3373C239.843 40.8588 239.777 40.295 239.777 39.6456C239.843 39.304 239.929 39.0646 240.031 38.9279C240.131 38.7572 240.233 38.6205 240.336 38.5179L240.54 37.5953H241.303C241.574 37.6293 241.845 37.6465 242.119 37.6465C242.423 37.6465 242.711 37.6465 242.984 37.6465C244.273 37.6465 245.597 37.5953 246.955 37.4926C248.312 37.3901 249.703 37.2705 251.13 37.1338C252.692 36.9289 254.371 36.775 256.17 36.6725C256.339 36.2967 256.442 36.0573 256.475 35.9548C256.544 35.8524 256.611 35.7327 256.679 35.596L257.24 35.2884C258.02 35.2544 258.562 35.3569 258.869 35.596C259.174 35.8011 259.411 36.0061 259.582 36.2112C260.464 36.1427 261.363 36.0573 262.281 35.9548C263.196 35.8181 264.147 35.6815 265.132 35.5448C266.489 35.3739 267.864 35.2029 269.255 35.0322C270.648 34.8613 272.005 34.7759 273.328 34.7759C273.905 34.7759 274.45 34.7929 274.958 34.8271C275.467 34.8613 275.959 34.9126 276.435 34.981L277.046 35.4423C277.181 35.6815 277.35 35.9036 277.555 36.1087C277.757 36.3137 277.995 36.5188 278.268 36.7237C278.777 37.1338 279.269 37.6465 279.745 38.2617C280.253 38.8767 280.439 39.7823 280.303 40.9784L280.049 41.491C279.913 41.6276 279.745 41.7643 279.54 41.901L279.031 42.5674H278.47C278.132 42.5674 277.876 42.6017 277.707 42.6701C277.538 42.7041 277.334 42.7726 277.096 42.875C276.96 42.9435 276.808 43.0117 276.637 43.0802C276.468 43.1142 276.281 43.1656 276.078 43.2339C275.705 43.1997 275.415 43.1826 275.213 43.1826C275.008 43.1826 274.771 43.1826 274.5 43.1826C273.482 43.1826 272.379 43.2511 271.19 43.3878C270.001 43.5245 268.848 43.6782 267.728 43.8491C266.913 43.9515 266.133 44.054 265.386 44.1567C264.64 44.2249 263.96 44.2934 263.349 44.3616C263.011 45.2502 262.704 46.0363 262.433 46.7197C262.162 47.4031 261.872 48.0866 261.568 48.77C261.261 49.4536 260.973 50.1541 260.702 50.8717C260.431 51.5552 260.175 52.3241 259.939 53.1784C259.53 53.7936 259.19 54.3916 258.919 54.9726C258.648 55.5195 258.427 56.1517 258.258 56.8694C257.749 57.4501 257.376 58.0826 257.138 58.766C256.934 59.4494 256.748 60.0304 256.577 60.5089L256.375 61.2778C256.137 61.5169 255.983 61.7049 255.916 61.8415C255.883 61.9782 255.797 62.1321 255.662 62.3028C255.559 62.7471 255.424 63.1744 255.253 63.5845C255.186 63.7554 255.117 63.9433 255.051 64.1484C254.982 64.3191 254.965 64.4558 254.998 64.5585C254.932 64.9343 254.83 65.2247 254.694 65.4298C254.694 65.635 254.677 65.8399 254.642 66.045C254.608 66.25 254.575 66.4551 254.542 66.66C254.473 66.8994 254.423 67.1215 254.387 67.3265C254.354 67.4974 254.371 67.6683 254.44 67.8392C254.542 67.9759 254.642 68.1126 254.744 68.2492C254.846 68.3859 254.932 68.5568 254.998 68.7618C255.067 68.8302 255.153 68.8814 255.253 68.9157C255.355 68.9497 255.441 69.0011 255.509 69.0694C255.78 69.3085 256.035 69.4452 256.273 69.4794L256.782 70.0946C256.986 71.3248 256.798 72.2818 256.221 72.9653C255.609 73.7511 254.592 74.1442 253.165 74.1442L252.454 74.093C252.216 73.8536 252.081 73.6999 252.045 73.6317C251.741 73.495 251.487 73.3753 251.282 73.2729C251.078 73.2044 250.892 73.0507 250.723 72.8113C250.654 72.7431 250.569 72.7089 250.469 72.7089C250.367 72.6747 250.281 72.6234 250.212 72.5552C249.874 72.4525 249.601 72.333 249.399 72.1964L248.838 71.8888C248.873 71.5469 248.89 71.3078 248.89 71.1711C248.617 70.7951 248.398 70.385 248.227 69.9407C248.091 69.4966 247.973 69.0351 247.87 68.5568C247.77 68.1808 247.668 67.8392 247.566 67.5316C247.497 67.224 247.378 66.9506 247.209 66.7115C247.14 64.3191 247.361 62.3201 247.87 60.7138C248.381 59.0736 248.94 57.4844 249.551 55.9466C249.891 55.1265 250.212 54.2891 250.519 53.4348C250.823 52.5804 251.097 51.7091 251.334 50.8205L251.893 50.2566C252.131 50.0516 252.283 49.9319 252.352 49.8977C252.352 49.4536 252.438 49.0264 252.606 48.6163C252.775 48.172 252.963 47.7277 253.165 47.2835C253.303 47.0101 253.422 46.7367 253.522 46.4633C253.658 46.19 253.743 45.9508 253.776 45.7457C253.541 45.7457 253.32 45.7627 253.115 45.7969C252.946 45.7969 252.759 45.8141 252.556 45.8481C252.114 45.9508 251.689 46.002 251.282 46.002C250.978 46.002 250.757 45.9848 250.621 45.9508C250.35 46.0875 250.093 46.173 249.858 46.207C249.62 46.207 249.382 46.207 249.145 46.207H248.534H247.922C247.516 46.207 247.193 46.2582 246.955 46.3609C246.479 46.3609 246.175 46.3609 246.039 46.3609C245.902 46.3609 245.749 46.3609 245.581 46.3609H244.969H244.358C244.087 46.3609 243.781 46.3437 243.441 46.3096C243.103 46.2412 242.746 46.1045 242.373 45.8994L242.016 45.4893C241.812 45.1135 241.626 44.9083 241.455 44.8743L240.897 44.7204V44.1567ZM273.932 49.9492C274.032 49.4364 274.101 49.0264 274.135 48.7188C274.168 48.3772 274.049 48.0183 273.778 47.6423C273.914 47.0955 274.016 46.6685 274.085 46.3609C274.187 46.0533 274.203 45.626 274.135 45.0793C274.441 44.1907 274.898 43.439 275.509 42.8238C276.155 42.2086 276.85 41.6961 277.596 41.286C278.343 40.8417 279.125 40.4829 279.938 40.2095C280.754 39.9019 281.517 39.6456 282.23 39.4407C282.23 39.304 282.162 39.2355 282.026 39.2355C281.89 39.2355 281.857 39.1501 281.926 38.9792C283.757 38.6375 285.59 38.142 287.423 37.4926C289.29 36.8434 291.192 36.2624 293.127 35.7499C295.06 35.2372 297.045 34.9296 299.083 34.8271C301.12 34.6904 303.258 34.9468 305.498 35.596C305.633 36.0061 305.821 36.3991 306.059 36.7749C306.297 37.151 306.534 37.5268 306.772 37.9029C307.043 38.2445 307.281 38.5863 307.483 38.9279C307.688 39.2697 307.806 39.6286 307.84 40.0044C308.249 40.3805 308.57 40.7905 308.807 41.2348C309.079 41.6449 309.131 42.2086 308.96 42.9263C308.586 43.1997 308.196 43.473 307.79 43.7466C307.383 44.02 306.958 44.2761 306.518 44.5155C304.989 44.1395 303.462 44.0028 301.934 44.1054C300.407 44.2079 299.033 44.3274 297.811 44.4643C297.438 44.054 296.995 43.8661 296.487 43.9003C295.978 43.9003 295.433 43.9858 294.858 44.1567C294.314 44.2934 293.771 44.447 293.227 44.618C292.685 44.7546 292.176 44.7889 291.7 44.7204C291.327 45.0622 290.835 45.3014 290.224 45.4381C289.613 45.5405 288.969 45.626 288.289 45.6944C288.255 45.8654 288.289 45.9848 288.391 46.0533C288.493 46.1215 288.51 46.2582 288.443 46.4633C288.679 46.7709 289.002 46.9931 289.409 47.1298C289.817 47.2322 290.224 47.3347 290.631 47.4374C291.073 47.5398 291.463 47.6935 291.803 47.8987C292.143 48.0696 292.362 48.3599 292.464 48.77C293.075 48.8042 293.6 48.9751 294.042 49.2827C294.485 49.5561 294.858 49.8977 295.162 50.308C295.469 50.7181 295.688 51.1623 295.826 51.6406C295.961 52.0849 296.011 52.495 295.978 52.871C296.113 53.2126 296.249 53.3493 296.384 53.2811C296.553 53.2126 296.741 53.2981 296.945 53.5372C297.081 54.05 297.385 54.5967 297.861 55.1777C298.37 55.7244 298.76 56.3224 299.033 56.9718C299.1 57.9971 299.152 58.9197 299.185 59.7398C299.252 60.5601 299.116 61.3632 298.779 62.1491C298.201 63.6529 297.369 65.0028 296.282 66.1987C295.196 67.3949 293.957 68.4542 292.566 69.377C291.208 70.2655 289.765 71.0514 288.239 71.7349C286.71 72.3843 285.2 72.931 283.707 73.3753C283.571 73.3411 283.402 73.3411 283.198 73.3753C283.027 73.4095 282.994 73.3069 283.096 73.0677C282.791 73.3411 282.435 73.512 282.026 73.5802C281.653 73.6487 281.229 73.6657 280.754 73.6317C280.312 73.6317 279.855 73.6145 279.38 73.5802C278.937 73.5462 278.497 73.5632 278.055 73.6317C277.784 73.3581 277.53 73.0847 277.292 72.8113C277.088 72.538 276.919 72.2134 276.783 71.8375C276.612 71.8033 276.529 71.7008 276.529 71.5299C276.562 71.3248 276.493 71.2223 276.324 71.2223C276.324 71.0857 276.341 70.9832 276.374 70.9147C276.41 70.8465 276.443 70.7781 276.477 70.7098C276.612 70.6071 276.664 70.5389 276.629 70.5047C276.629 70.4362 276.579 70.385 276.477 70.351C276.41 70.2825 276.324 70.2143 276.222 70.1459C276.155 70.0774 276.137 69.9922 276.172 69.8895C276.341 69.5819 276.393 69.2231 276.324 68.813C276.291 68.3687 276.256 67.9246 276.222 67.4804C276.189 67.0361 276.222 66.626 276.324 66.25C276.427 65.8399 276.714 65.4983 277.19 65.2247C278.581 65.3616 279.888 65.2932 281.11 65.0198C282.366 64.7464 283.538 64.3704 284.622 63.8921C285.744 63.4136 286.795 62.901 287.78 62.3543C288.797 61.7733 289.782 61.2436 290.733 60.7651C290.835 60.4235 290.987 60.1329 291.192 59.8937C291.429 59.6546 291.667 59.4324 291.905 59.2273C292.143 58.9881 292.362 58.7488 292.566 58.5096C292.77 58.2363 292.923 57.9116 293.025 57.5356C293.058 57.3989 293.058 57.2965 293.025 57.2282C292.991 57.1598 292.939 57.1085 292.872 57.0743C292.804 57.0061 292.735 56.9376 292.668 56.8694C292.599 56.8009 292.566 56.6985 292.566 56.5618C292.464 56.5276 292.362 56.4933 292.261 56.4591C292.193 56.4251 292.124 56.4079 292.057 56.4079C291.175 55.9636 290.241 55.5878 289.256 55.2802C288.272 54.9726 287.44 54.631 286.762 54.2549C286.355 54.5283 285.947 54.5967 285.54 54.46C285.133 54.3234 284.641 54.1867 284.064 54.05C282.637 53.9815 281.279 53.8448 279.991 53.6399C278.735 53.4348 277.513 53.076 276.324 52.5634C276.256 52.3583 276.172 52.1874 276.07 52.0507C275.968 51.88 275.73 51.8286 275.357 51.897C275.119 51.5552 274.865 51.2476 274.593 50.9742C274.356 50.6668 274.135 50.325 273.932 49.9492Z" fill="#AF530A"/>
<path d="M22.6071 68.6081C21.6228 67.8562 20.8082 66.9164 20.1632 65.7887C19.5524 64.661 19.0602 63.4648 18.6867 62.2004C18.3474 60.936 18.1096 59.6374 17.9739 58.3047C17.8721 56.9376 17.8382 55.639 17.8721 54.4088C18.1776 53.486 18.5509 52.6489 18.9922 51.897C19.4335 51.1109 19.9257 50.3762 20.4687 49.6928C21.0118 48.9752 21.5719 48.3087 22.149 47.6935C22.7598 47.0443 23.3539 46.3949 23.931 45.7457C24.1345 45.7457 24.3212 45.7969 24.4909 45.8994C24.6267 45.5236 24.8305 45.1989 25.102 44.9256C25.3735 44.6522 25.6621 44.4128 25.9674 44.2079C26.273 43.9688 26.5785 43.7466 26.884 43.5415C27.1895 43.3023 27.4439 43.029 27.6477 42.7214C28.4963 42.5162 29.2431 42.2259 29.8879 41.8498C30.5667 41.474 31.2117 41.0639 31.8228 40.6196C32.4336 40.1753 33.0615 39.7653 33.7066 39.3894C34.3514 39.0134 35.0982 38.723 35.9468 38.5179C36.2523 38.1763 36.6256 37.8857 37.0669 37.6465C37.5422 37.4074 38.0003 37.1852 38.4416 36.9801C38.9167 36.775 39.358 36.5528 39.7653 36.3137C40.2065 36.0745 40.5629 35.7499 40.8345 35.3396C41.0382 35.6132 41.3266 35.7157 41.7001 35.6472C42.0734 35.5448 42.413 35.4423 42.7185 35.3396C42.922 35.3056 43.0918 35.3396 43.2275 35.4423C43.3633 35.5448 43.4822 35.6645 43.5839 35.8012C43.7197 35.9036 43.8215 35.9721 43.8895 36.0061C43.9912 36.0403 44.093 35.9378 44.195 35.6985C44.4665 35.7327 44.5343 35.8524 44.3985 36.0573C44.2968 36.2624 44.2288 36.3991 44.195 36.4676C44.5343 36.3991 44.8058 36.4676 45.0096 36.6725C45.2471 36.8434 45.6035 36.9631 46.0788 37.0313C46.2485 37.2022 46.2994 37.3389 46.2314 37.4414C46.1637 37.5441 46.1128 37.7148 46.0788 37.9541C47.3006 38.33 48.0814 38.9279 48.4207 39.7483C48.7603 40.5342 48.7943 41.3715 48.5227 42.2599C48.2512 43.1142 47.7419 43.9173 46.9951 44.6692C46.2823 45.3869 45.4848 45.8654 44.6023 46.1045C43.5499 46.3779 42.5656 46.6513 41.6493 46.9246C40.7667 47.198 39.901 47.5056 39.0524 47.8474C38.2379 48.189 37.4573 48.5993 36.7105 49.0776C35.9977 49.5219 35.3697 50.0516 34.8267 50.6668C33.8763 50.9402 33.0107 51.3161 32.2301 51.7946C31.4833 52.2729 30.7705 52.8026 30.0916 53.3836C29.4466 53.9645 28.8187 54.5797 28.2079 55.2289C27.5968 55.8441 26.9858 56.4591 26.3747 57.0743C26.3747 57.6553 26.273 58.0996 26.0694 58.4072C25.8657 58.7148 25.645 59.0222 25.4075 59.3298C25.4753 59.9792 25.611 60.5429 25.8148 61.0214C26.0523 61.4657 26.2901 61.927 26.5276 62.4055C29.2431 63.2256 32.1112 63.7382 35.1322 63.9433C38.187 64.1142 41.208 64.2167 44.195 64.2509C44.5005 64.661 44.8398 65.054 45.2133 65.4298C45.6206 65.7717 45.977 66.1305 46.2823 66.5063C46.6218 66.8822 46.8765 67.3265 47.0462 67.8392C47.2498 68.3175 47.3006 68.8985 47.1989 69.5819C46.6218 70.1629 45.9939 70.7268 45.3151 71.2736C44.6363 71.7861 43.9572 72.2988 43.2784 72.8114C42.9729 72.8456 42.5996 72.8456 42.1583 72.8114C41.751 72.7773 41.3097 72.7601 40.8345 72.7601C40.3934 72.7601 39.935 72.7944 39.4599 72.8626C39.0187 72.8968 38.5943 72.9993 38.187 73.1702C36.0486 73.1019 33.8592 72.8456 31.619 72.4013C29.3788 71.923 27.3082 71.359 25.4075 70.7098C25.034 70.2655 24.6438 69.8555 24.2365 69.4794C23.829 69.0694 23.286 68.779 22.6071 68.6081Z" fill="#AF530A"/>
<path d="M93.3437 30.0722C92.1896 30.717 89.725 31.6536 87.7567 32.2094C83.0903 33.5032 79.7052 35.0212 76.108 37.4253C74.2338 38.6918 70.9204 41.3388 70.2908 42.0651C70.2701 42.0972 70.6814 42.4233 71.1982 42.7962L72.1527 43.4895L72.6799 43.0606C73.526 42.3847 74.4928 41.1732 74.9572 40.2475C75.1866 39.7715 75.3933 39.383 75.4196 39.3774C75.5509 39.3494 75.289 40.2598 74.9366 41.0653C74.548 41.961 73.6469 43.1586 73.0069 43.639C72.6252 43.913 72.6419 43.9922 73.2901 44.599C73.7393 45.0414 74.6164 46.1508 75.3109 47.1752C75.5914 47.5981 75.7269 47.4591 76.1941 46.2848C76.5895 45.291 77.2543 44.6674 78.8716 43.745C80.4313 42.8762 80.9802 42.2222 83.0646 38.8159C85.5997 34.6798 86.2087 33.7234 85.8327 34.5478C85.1885 35.9251 83.1137 39.7704 82.2048 41.2593C81.2027 42.8917 80.5669 43.5231 79.0622 44.3938C77.8141 45.1136 77.3891 45.5073 77.0172 46.2203C76.8446 46.5739 76.5501 47.1328 76.3586 47.4629L76.0331 48.0695L76.6114 48.5396C77.588 49.3385 79.4906 50.6302 79.9744 50.8446L80.429 51.0514L81.0401 50.0394C81.7727 48.8224 82.9449 46.299 83.938 43.7723C84.7952 41.5778 84.8415 41.4713 84.5754 42.4928C83.9491 44.8728 82.3402 48.9776 81.4678 50.4448L80.8776 51.4247L82.1927 52.1382L83.5239 52.8619L83.7858 52.4754C84.1777 51.9236 85.2129 49.9256 85.7092 48.7588C86.2981 47.3793 86.7205 45.6631 86.7993 44.3367C86.9113 42.121 87.7523 39.3923 89.6274 35.0517C90.9289 32.0322 90.8736 32.2921 89.3137 36.5657C88.1427 39.7505 87.5609 42.0796 87.4011 44.2641C87.3265 45.2173 87.1697 46.3671 87.0452 46.8208C86.7259 48.0466 85.8494 50.1487 85.005 51.748C84.3178 53.0517 84.2846 53.1552 84.5391 53.3219C84.9495 53.5794 87.4416 54.608 87.5861 54.5773C87.6518 54.5635 88.3457 53.6856 89.1219 52.611C90.0693 51.3069 90.6209 50.4041 90.815 49.8254C91.278 48.5001 91.5787 46.4651 91.8021 43.2747C92.0344 39.9306 92.2646 37.6901 92.36 37.7524C92.405 37.7705 92.4015 37.9504 92.385 38.1331C92.3552 38.3187 92.297 39.875 92.259 41.5923C92.151 46.8399 91.8213 49.3912 91.039 50.8943C90.853 51.2509 90.1452 52.3248 89.4651 53.2686L88.2116 55.0098L89.1064 55.5503L90.0015 56.0909L90.2315 55.6838L90.4749 55.2738L90.356 55.7537L90.2372 56.2339L91.0914 56.9073C91.5529 57.2781 91.9877 57.5855 92.0457 57.6008C92.4279 57.6575 93.5468 53.243 93.8538 50.5174C94.2277 47.1297 94.1422 44.3632 93.5272 39.4622C93.0753 35.8636 93.0988 34.7972 93.6567 32.6799C94.0016 31.38 94.0825 29.7362 93.815 29.8343C93.7493 29.8481 93.553 29.9588 93.3437 30.0722ZM80.6009 37.4642C80.3915 38.1014 78.7417 40.5055 77.5634 41.886C77.0249 42.5241 76.1561 43.5496 75.631 44.1849C75.0898 44.8098 74.6523 45.2748 74.6385 45.2089C74.5943 44.9977 76.3801 42.5233 78.2545 40.2092C79.2996 38.9121 80.2739 37.6714 80.4032 37.4371C80.7293 36.8992 80.7848 36.9012 80.6009 37.4642ZM91.2467 37.4789C90.6038 40.5651 90.3896 41.7686 90.1483 43.6946C90.0238 44.6722 89.9043 45.3456 89.8607 45.203C89.7667 44.7543 89.9333 42.472 90.1719 41.0567C90.3971 39.6442 91.5045 35.37 91.6129 35.4298C91.6476 35.4638 91.483 36.381 91.2467 37.4789Z" fill="#AF530A"/>
<path d="M66.7113 42.2775C63.8723 44.205 59.9464 50.5442 58.7971 55.0519C57.267 61.007 58.3436 68.6299 61.2442 72.4851C62.0219 73.5206 62.8206 74.0686 63.6116 74.1215C64.5522 74.1703 65.3901 74.4476 67.2904 75.3551C69.9058 76.6077 71.3981 76.9395 73.9307 76.8158C76.2349 76.7129 80.3485 75.6465 83.132 74.4348C88.7748 71.9812 92.191 67.3233 93.0934 60.853L93.2099 59.9729L92.8158 59.4631C91.7829 58.1231 88.3514 55.719 86.1782 54.8143C82.607 53.3094 77.851 50.5243 75.8074 48.7364C75.4231 48.404 74.8408 47.7135 74.5046 47.219C72.7653 44.6629 70.4651 42.6949 68.423 42.0245C67.5561 41.7393 67.4777 41.7561 66.7113 42.2775ZM75.4833 50.8474C77.1046 52.1868 79.3575 53.6681 80.9197 54.3989C81.5875 54.7126 83.0352 55.2884 84.1551 55.6715C86.5454 56.5026 88.3375 57.3504 89.4991 58.1938C90.8037 59.1313 90.8824 59.3768 89.6457 58.632C88.3454 57.8455 86.7288 57.1814 84.3736 56.4532C83.4542 56.179 82.1522 55.7104 81.4901 55.4231C79.9733 54.7792 77.403 53.0894 76.159 51.9184C75.207 51.0303 74.0492 49.8133 74.1409 49.794C74.167 49.7883 74.7734 50.2668 75.4833 50.8474ZM61.6519 53.3972C61.3487 54.4966 61.0595 57.1661 61.044 58.9218C60.9904 63.2385 61.8313 67.7103 63.1566 70.1196C63.9436 71.5258 64.8024 72.0334 67.3181 72.5481C68.1732 72.7116 69.3166 73.0759 69.863 73.3325C71.0609 73.8925 71.8713 74.0378 73.7226 74.0588C75.6264 74.0686 80.1408 73.1517 81.8972 72.3925C83.4024 71.7416 85.2139 70.7224 86.3263 69.8929C88.2201 68.4836 90.3435 65.9491 91.5011 63.7025C91.928 62.8668 91.7883 63.3103 91.2851 64.3693C90.6817 65.6703 89.1946 67.78 88.1321 68.8472C85.0045 72.0087 80.4999 74.0827 75.6529 74.5872C72.8834 74.8854 71.0119 74.7031 69.647 73.9993C69.3089 73.8228 68.0785 73.4354 66.9096 73.1454C65.1036 72.6871 64.6738 72.5298 63.9778 72.0152C62.6573 71.0674 61.9426 69.5494 61.2482 66.2334C60.3877 62.1244 60.4413 57.5457 61.4021 53.8367C61.5739 53.2206 61.726 52.7054 61.7654 52.697C61.8046 52.6888 61.7477 53.0044 61.6519 53.3972ZM89.098 64.6404C87.2466 67.5587 84.2454 70.0172 80.9351 71.3271C79.267 71.9847 76.5258 72.4838 74.9916 72.4095L73.9539 72.3536L74.7563 72.2661C76.3669 72.1174 79.9629 71.2574 81.0369 70.7674C84.0525 69.4234 87.1717 66.9397 89.1083 64.3622C89.7372 63.5112 89.7331 63.6225 89.098 64.6404Z" fill="#AF530A"/>
<path d="M71.4987 93.2603C71.4906 93.9328 71.4824 94.5848 71.4743 95.2163C71.4743 95.487 71.4701 95.7658 71.462 96.0531C71.462 96.3319 71.458 96.6107 71.4499 96.8896C71.4499 97.1684 71.4499 97.435 71.4499 97.6893C71.4499 97.9354 71.4499 98.1567 71.4499 98.3536C71.4499 98.7637 71.4499 99.2598 71.4499 99.8423C71.458 100.416 71.4662 101.007 71.4743 101.614C71.4824 102.221 71.4945 102.807 71.511 103.373C71.5273 103.931 71.5475 104.398 71.5719 104.776C71.6534 104.792 71.7594 104.808 71.8897 104.825C72.0201 104.833 72.1544 104.845 72.293 104.862C72.4396 104.87 72.5821 104.878 72.7206 104.886C72.859 104.886 72.9773 104.886 73.0751 104.886C73.523 104.886 73.9752 104.857 74.4313 104.8C74.8957 104.743 75.3397 104.636 75.7632 104.48C76.1949 104.316 76.5983 104.095 76.973 103.816C77.3478 103.537 77.6735 103.18 77.9505 102.746C78.2358 102.303 78.4556 101.774 78.6103 101.159C78.7734 100.535 78.8547 99.8011 78.8547 98.9564C78.8547 97.0947 78.4107 95.6594 77.523 94.6505C76.6431 93.6416 75.3274 93.1373 73.576 93.1373C73.405 93.1373 73.2217 93.1413 73.0261 93.1497C72.8388 93.1579 72.6513 93.17 72.464 93.1864C72.2766 93.1946 72.0974 93.207 71.9264 93.2234C71.7633 93.2397 71.6209 93.2521 71.4987 93.2603ZM68.9692 92.3623C69.1649 92.3705 69.348 92.3745 69.5192 92.3745C69.6658 92.3827 69.8082 92.3869 69.9469 92.3869C70.0854 92.3869 70.1871 92.3869 70.2522 92.3869C70.3663 92.3869 70.57 92.3827 70.8633 92.3745C71.1565 92.3663 71.4864 92.3581 71.853 92.3499C72.2278 92.3335 72.6188 92.3211 73.0261 92.313C73.4415 92.2966 73.8244 92.2884 74.1748 92.2884C75.1278 92.2884 76.0362 92.399 76.8996 92.6206C77.7632 92.8421 78.5208 93.207 79.1726 93.7155C79.8324 94.2159 80.3538 94.876 80.7366 95.6961C81.1195 96.5083 81.311 97.5129 81.311 98.7104C81.311 99.9981 81.091 101.089 80.6511 101.983C80.2111 102.877 79.6165 103.607 78.867 104.173C78.1175 104.73 77.246 105.136 76.2521 105.391C75.2663 105.637 74.2236 105.76 73.1239 105.76C72.8632 105.76 72.5373 105.752 72.1462 105.735C71.7552 105.719 71.356 105.702 70.9488 105.686C70.5415 105.669 70.1546 105.653 69.788 105.637C69.4295 105.62 69.1565 105.612 68.9692 105.612V105.563C69.0262 105.391 69.0752 105.169 69.1158 104.899C69.1649 104.628 69.2013 104.296 69.2257 103.902C69.2585 103.5 69.2829 103.024 69.2992 102.475C69.3154 101.925 69.3236 101.282 69.3236 100.543V97.4432C69.3236 96.705 69.3154 96.0612 69.2992 95.5118C69.2829 94.9621 69.2585 94.4865 69.2257 94.0846C69.2013 93.6828 69.1649 93.3464 69.1158 93.0758C69.0752 92.8051 69.0262 92.5836 68.9692 92.4114V92.3623ZM90.5112 99.1901C90.6741 99.2147 90.8372 99.2353 91 99.2517C91.171 99.2598 91.3339 99.264 91.4889 99.264C92.507 99.264 93.2769 98.9892 93.7983 98.4397C94.3278 97.8902 94.5924 97.0659 94.5924 95.9668C94.5924 95.0648 94.3808 94.3511 93.9572 93.8262C93.5416 93.3013 92.9266 93.0388 92.112 93.0388C91.8513 93.0388 91.6192 93.0512 91.4154 93.0758C91.22 93.0921 91.053 93.1127 90.9145 93.1373C90.7598 93.17 90.6253 93.2028 90.5112 93.2357V99.1901ZM92.3808 99.9899C92.2179 100.014 92.0549 100.031 91.892 100.039C91.7372 100.039 91.5783 100.039 91.4154 100.039C91.2851 100.039 91.1425 100.035 90.9877 100.027C90.833 100.018 90.6741 100.006 90.5112 99.9899V100.593C90.5112 101.323 90.5193 101.962 90.5356 102.512C90.5519 103.053 90.5723 103.521 90.5967 103.914C90.6294 104.308 90.6659 104.64 90.7068 104.911C90.7475 105.173 90.7963 105.391 90.8534 105.563V105.612H88.0308V105.563C88.0877 105.391 88.1365 105.169 88.1774 104.899C88.2262 104.628 88.2629 104.296 88.2873 103.902C88.3198 103.5 88.3442 103.024 88.3607 102.475C88.3769 101.925 88.3851 101.282 88.3851 100.543V97.4432C88.3851 96.705 88.3769 96.0652 88.3607 95.5239C88.3442 94.9745 88.3198 94.5029 88.2873 94.1092C88.2629 93.7073 88.2262 93.371 88.1774 93.1003C88.1365 92.8297 88.0877 92.6082 88.0308 92.436V92.3869C88.1611 92.3951 88.2996 92.4032 88.4462 92.4114C88.5684 92.4196 88.7027 92.4278 88.8493 92.436C89.0042 92.436 89.159 92.436 89.3137 92.436C89.5744 92.436 89.9613 92.4114 90.4745 92.3623C90.9877 92.313 91.5906 92.2884 92.283 92.2884C92.9837 92.2884 93.6189 92.3745 94.1893 92.5466C94.7676 92.719 95.2606 92.9651 95.6679 93.2849C96.0833 93.6047 96.4009 93.9944 96.621 94.4535C96.8491 94.9129 96.9632 95.4255 96.9632 95.9915C96.9632 96.4343 96.9021 96.8404 96.7799 97.2093C96.6577 97.5703 96.4865 97.8984 96.2666 98.1936C96.0466 98.4807 95.7859 98.7349 95.4846 98.9564C95.183 99.1777 94.8492 99.3705 94.4825 99.5347L97.0364 103.164C97.2564 103.459 97.4764 103.742 97.6962 104.013C97.9244 104.283 98.1402 104.525 98.344 104.739C98.5475 104.952 98.739 105.132 98.9183 105.28C99.0975 105.419 99.2482 105.514 99.3704 105.563V105.612H96.1688C96.1688 105.538 96.1159 105.411 96.0099 105.231C95.9123 105.042 95.7941 104.849 95.6556 104.653C95.5253 104.447 95.391 104.251 95.2523 104.062C95.1219 103.873 95.0243 103.734 94.9591 103.644L92.3808 99.9899ZM105.1 97.4432C105.1 96.705 105.092 96.0652 105.076 95.5239C105.06 94.9745 105.035 94.5029 105.003 94.1092C104.978 93.7073 104.942 93.371 104.893 93.1003C104.852 92.8297 104.803 92.6082 104.746 92.436V92.3869H107.581V92.436C107.524 92.6082 107.471 92.8297 107.422 93.1003C107.381 93.371 107.345 93.7073 107.312 94.1092C107.288 94.5029 107.267 94.9745 107.251 95.5239C107.235 96.0652 107.227 96.705 107.227 97.4432V100.543C107.227 101.282 107.235 101.925 107.251 102.475C107.267 103.024 107.288 103.5 107.312 103.902C107.345 104.296 107.381 104.628 107.422 104.899C107.471 105.169 107.524 105.391 107.581 105.563V105.612H104.746V105.563C104.803 105.391 104.852 105.169 104.893 104.899C104.942 104.628 104.978 104.296 105.003 103.902C105.035 103.5 105.06 103.024 105.076 102.475C105.092 101.925 105.1 101.282 105.1 100.543V97.4432ZM115.107 92.3869C115.905 92.3869 116.724 92.3869 117.563 92.3869C118.402 92.3787 119.18 92.3705 119.897 92.3623C120.614 92.3457 121.229 92.3293 121.742 92.313C122.264 92.2966 122.606 92.272 122.769 92.2393L122.292 93.5679C122.072 93.5104 121.824 93.4571 121.547 93.4079C121.302 93.367 121.005 93.33 120.655 93.2973C120.313 93.2561 119.913 93.2357 119.457 93.2357C119.294 93.2357 119.107 93.2439 118.895 93.2603C118.683 93.2685 118.48 93.2809 118.284 93.2973C118.056 93.3136 117.824 93.33 117.588 93.3464V98.206C118.248 98.1978 118.842 98.1813 119.372 98.1567C119.901 98.1321 120.353 98.0994 120.728 98.0582C121.168 98.0255 121.555 97.9803 121.889 97.923L121.596 99.3871C121.148 99.3295 120.696 99.2804 120.239 99.2393C119.848 99.1983 119.416 99.1656 118.944 99.141C118.472 99.108 118.019 99.0917 117.588 99.0917V104.677C118.345 104.677 119.042 104.648 119.677 104.591C120.313 104.525 120.867 104.456 121.339 104.382C121.893 104.292 122.394 104.189 122.842 104.074L122.561 105.686C122.439 105.678 122.239 105.665 121.962 105.649C121.693 105.641 121.408 105.633 121.107 105.624C120.814 105.624 120.537 105.62 120.276 105.612C120.015 105.612 119.836 105.612 119.738 105.612H115.107V105.563C115.164 105.391 115.213 105.169 115.254 104.899C115.303 104.628 115.339 104.296 115.364 103.902C115.396 103.5 115.421 103.024 115.437 102.475C115.453 101.925 115.461 101.282 115.461 100.543V97.4432C115.461 96.705 115.453 96.0652 115.437 95.5239C115.421 94.9745 115.396 94.5029 115.364 94.1092C115.339 93.7073 115.303 93.371 115.254 93.1003C115.213 92.8297 115.164 92.6082 115.107 92.436V92.3869ZM132.226 93.2603C132.217 93.9328 132.209 94.5848 132.201 95.2163C132.201 95.487 132.197 95.7658 132.189 96.0531C132.189 96.3319 132.185 96.6107 132.177 96.8896C132.177 97.1684 132.177 97.435 132.177 97.6893C132.177 97.9354 132.177 98.1567 132.177 98.3536C132.177 98.7637 132.177 99.2598 132.177 99.8423C132.185 100.416 132.193 101.007 132.201 101.614C132.209 102.221 132.222 102.807 132.238 103.373C132.254 103.931 132.274 104.398 132.299 104.776C132.38 104.792 132.486 104.808 132.617 104.825C132.747 104.833 132.881 104.845 133.02 104.862C133.167 104.87 133.309 104.878 133.447 104.886C133.586 104.886 133.704 104.886 133.802 104.886C134.25 104.886 134.702 104.857 135.158 104.8C135.623 104.743 136.067 104.636 136.49 104.48C136.922 104.316 137.325 104.095 137.7 103.816C138.075 103.537 138.4 103.18 138.678 102.746C138.963 102.303 139.182 101.774 139.337 101.159C139.5 100.535 139.582 99.8011 139.582 98.9564C139.582 97.0947 139.138 95.6594 138.25 94.6505C137.37 93.6416 136.054 93.1373 134.303 93.1373C134.132 93.1373 133.949 93.1413 133.753 93.1497C133.566 93.1579 133.378 93.17 133.191 93.1864C133.004 93.1946 132.824 93.207 132.653 93.2234C132.49 93.2397 132.348 93.2521 132.226 93.2603ZM129.696 92.3623C129.892 92.3705 130.075 92.3745 130.246 92.3745C130.393 92.3827 130.535 92.3869 130.674 92.3869C130.812 92.3869 130.914 92.3869 130.979 92.3869C131.093 92.3869 131.297 92.3827 131.59 92.3745C131.883 92.3663 132.213 92.3581 132.58 92.3499C132.955 92.3335 133.346 92.3211 133.753 92.313C134.169 92.2966 134.551 92.2884 134.902 92.2884C135.855 92.2884 136.763 92.399 137.627 92.6206C138.49 92.8421 139.248 93.207 139.899 93.7155C140.559 94.2159 141.081 94.876 141.464 95.6961C141.846 96.5083 142.038 97.5129 142.038 98.7104C142.038 99.9981 141.818 101.089 141.378 101.983C140.938 102.877 140.343 103.607 139.594 104.173C138.844 104.73 137.973 105.136 136.979 105.391C135.993 105.637 134.951 105.76 133.851 105.76C133.59 105.76 133.264 105.752 132.873 105.735C132.482 105.719 132.083 105.702 131.676 105.686C131.268 105.669 130.882 105.653 130.515 105.637C130.156 105.62 129.884 105.612 129.696 105.612V105.563C129.753 105.391 129.802 105.169 129.843 104.899C129.892 104.628 129.928 104.296 129.953 103.902C129.985 103.5 130.01 103.024 130.026 102.475C130.042 101.925 130.05 101.282 130.05 100.543V97.4432C130.05 96.705 130.042 96.0612 130.026 95.5118C130.01 94.9621 129.985 94.4865 129.953 94.0846C129.928 93.6828 129.892 93.3464 129.843 93.0758C129.802 92.8051 129.753 92.5836 129.696 92.4114V92.3623ZM162.87 100.543C162.87 101.282 162.878 101.925 162.895 102.475C162.911 103.024 162.931 103.5 162.956 103.902C162.988 104.296 163.025 104.628 163.066 104.899C163.106 105.169 163.155 105.391 163.212 105.563V105.612H160.39V105.563C160.447 105.391 160.495 105.169 160.536 104.899C160.585 104.628 160.622 104.296 160.646 103.902C160.679 103.5 160.703 103.024 160.719 102.475C160.736 101.925 160.744 101.282 160.744 100.543V97.4432C160.744 96.705 160.736 96.0652 160.719 95.5239C160.703 94.9745 160.679 94.5029 160.646 94.1092C160.622 93.7073 160.585 93.371 160.536 93.1003C160.495 92.8297 160.447 92.6082 160.39 92.436V92.3869C160.919 92.3869 161.465 92.3869 162.027 92.3869C162.597 92.3869 163.155 92.3869 163.701 92.3869C164.255 92.3787 164.78 92.3705 165.277 92.3623C165.783 92.3539 166.235 92.3457 166.634 92.3375C167.041 92.3211 167.387 92.309 167.672 92.3008C167.957 92.2842 168.157 92.2638 168.271 92.2393L167.77 93.5679C167.558 93.5104 167.314 93.4571 167.037 93.4079C166.801 93.367 166.503 93.33 166.145 93.2973C165.795 93.2561 165.395 93.2357 164.947 93.2357C164.785 93.2357 164.585 93.2439 164.349 93.2603C164.121 93.2685 163.897 93.2809 163.677 93.2973C163.416 93.3136 163.147 93.33 162.87 93.3464V97.8245C163.53 97.8163 164.133 97.8 164.679 97.7754C165.224 97.7426 165.697 97.7097 166.096 97.6769C166.56 97.6442 166.976 97.603 167.342 97.5539L167.074 99.0301C166.593 98.9728 166.108 98.9195 165.619 98.8704C165.204 98.8292 164.748 98.7925 164.251 98.7595C163.762 98.7267 163.302 98.7104 162.87 98.7104V100.543ZM176.873 99.1901C177.036 99.2147 177.199 99.2353 177.361 99.2517C177.533 99.2598 177.695 99.264 177.85 99.264C178.869 99.264 179.638 98.9892 180.16 98.4397C180.689 97.8902 180.954 97.0659 180.954 95.9668C180.954 95.0648 180.742 94.3511 180.319 93.8262C179.903 93.3013 179.288 93.0388 178.473 93.0388C178.213 93.0388 177.981 93.0512 177.777 93.0758C177.581 93.0921 177.414 93.1127 177.276 93.1373C177.121 93.17 176.987 93.2028 176.873 93.2357V99.1901ZM178.742 99.9899C178.579 100.014 178.416 100.031 178.254 100.039C178.099 100.039 177.94 100.039 177.777 100.039C177.647 100.039 177.504 100.035 177.349 100.027C177.195 100.018 177.036 100.006 176.873 99.9899V100.593C176.873 101.323 176.881 101.962 176.897 102.512C176.913 103.053 176.934 103.521 176.958 103.914C176.991 104.308 177.027 104.64 177.068 104.911C177.109 105.173 177.158 105.391 177.215 105.563V105.612H174.392V105.563C174.449 105.391 174.498 105.169 174.539 104.899C174.588 104.628 174.624 104.296 174.649 103.902C174.681 103.5 174.706 103.024 174.722 102.475C174.738 101.925 174.746 101.282 174.746 100.543V97.4432C174.746 96.705 174.738 96.0652 174.722 95.5239C174.706 94.9745 174.681 94.5029 174.649 94.1092C174.624 93.7073 174.588 93.371 174.539 93.1003C174.498 92.8297 174.449 92.6082 174.392 92.436V92.3869C174.522 92.3951 174.661 92.4032 174.808 92.4114C174.93 92.4196 175.064 92.4278 175.211 92.436C175.366 92.436 175.52 92.436 175.675 92.436C175.936 92.436 176.323 92.4114 176.836 92.3623C177.349 92.313 177.952 92.2884 178.645 92.2884C179.345 92.2884 179.981 92.3745 180.551 92.5466C181.129 92.719 181.622 92.9651 182.029 93.2849C182.445 93.6047 182.763 93.9944 182.982 94.4535C183.21 94.9129 183.325 95.4255 183.325 95.9915C183.325 96.4343 183.263 96.8404 183.141 97.2093C183.019 97.5703 182.848 97.8984 182.628 98.1936C182.408 98.4807 182.148 98.7349 181.846 98.9564C181.545 99.1777 181.211 99.3705 180.844 99.5347L183.398 103.164C183.618 103.459 183.838 103.742 184.058 104.013C184.286 104.283 184.502 104.525 184.705 104.739C184.909 104.952 185.101 105.132 185.28 105.28C185.459 105.419 185.61 105.514 185.732 105.563V105.612H182.53C182.53 105.538 182.477 105.411 182.371 105.231C182.274 105.042 182.156 104.849 182.017 104.653C181.887 104.447 181.752 104.251 181.614 104.062C181.483 103.873 181.386 103.734 181.321 103.644L178.742 99.9899ZM201.066 97.3939C201.066 96.6641 201.062 96.0283 201.054 95.487C201.046 94.9457 201.03 94.4783 201.005 94.0846C200.981 93.691 200.952 93.3628 200.92 93.1003C200.887 92.8297 200.846 92.6082 200.797 92.436V92.3869H202.594V92.436C202.545 92.6082 202.504 92.8297 202.472 93.1003C202.439 93.371 202.41 93.7073 202.386 94.1092C202.361 94.5029 202.345 94.9745 202.337 95.5239C202.329 96.0652 202.325 96.705 202.325 97.4432V100.974C202.325 101.86 202.186 102.614 201.909 103.238C201.641 103.861 201.266 104.374 200.785 104.776C200.305 105.169 199.73 105.456 199.062 105.637C198.402 105.825 197.678 105.92 196.887 105.92C196.089 105.92 195.348 105.829 194.663 105.649C193.979 105.477 193.384 105.198 192.879 104.812C192.382 104.427 191.987 103.927 191.694 103.312C191.409 102.696 191.266 101.95 191.266 101.072V97.4432C191.266 96.705 191.258 96.0652 191.242 95.5239C191.226 94.9745 191.201 94.5029 191.169 94.1092C191.136 93.7073 191.099 93.371 191.058 93.1003C191.018 92.8297 190.969 92.6082 190.912 92.436V92.3869H193.735V92.436C193.678 92.6082 193.629 92.8297 193.588 93.1003C193.547 93.3628 193.511 93.691 193.478 94.0846C193.454 94.4783 193.433 94.9457 193.417 95.487C193.401 96.0283 193.393 96.6641 193.393 97.3939V101.072C193.393 101.802 193.502 102.405 193.722 102.881C193.942 103.348 194.231 103.722 194.59 104C194.948 104.279 195.356 104.476 195.812 104.591C196.268 104.698 196.737 104.751 197.217 104.751C197.706 104.751 198.178 104.698 198.635 104.591C199.099 104.476 199.51 104.279 199.869 104C200.235 103.722 200.525 103.348 200.736 102.881C200.956 102.405 201.066 101.802 201.066 101.072V97.3939ZM210.353 97.4432C210.353 96.705 210.345 96.0652 210.328 95.5239C210.311 94.9745 210.286 94.5029 210.255 94.1092C210.23 93.7073 210.192 93.371 210.144 93.1003C210.103 92.8297 210.055 92.6082 209.998 92.436V92.3869H212.833V92.436C212.776 92.6082 212.722 92.8297 212.674 93.1003C212.632 93.371 212.597 93.7073 212.564 94.1092C212.539 94.5029 212.52 94.9745 212.503 95.5239C212.486 96.0652 212.478 96.705 212.478 97.4432V100.543C212.478 101.282 212.486 101.925 212.503 102.475C212.52 103.024 212.539 103.5 212.564 103.902C212.597 104.296 212.632 104.628 212.674 104.899C212.722 105.169 212.776 105.391 212.833 105.563V105.612H209.998V105.563C210.055 105.391 210.103 105.169 210.144 104.899C210.192 104.628 210.23 104.296 210.255 103.902C210.286 103.5 210.311 103.024 210.328 102.475C210.345 101.925 210.353 101.282 210.353 100.543V97.4432ZM223.719 93.2973C222.978 93.2973 222.303 93.33 221.692 93.3955C221.089 93.4613 220.568 93.531 220.128 93.6047C219.621 93.6949 219.166 93.7934 218.757 93.9001L219.003 92.313C219.124 92.3293 219.325 92.3417 219.602 92.3499C219.877 92.3581 220.167 92.3663 220.47 92.3745C220.778 92.3745 221.068 92.3787 221.337 92.3869C221.614 92.3869 221.804 92.3869 221.911 92.3869H227.691C227.787 92.3869 227.967 92.3869 228.227 92.3869C228.496 92.3787 228.782 92.3745 229.085 92.3745C229.385 92.3663 229.675 92.3581 229.952 92.3499C230.227 92.3417 230.428 92.3293 230.551 92.313L230.795 93.9001C230.403 93.7934 229.956 93.6949 229.449 93.6047C229.018 93.531 228.496 93.4613 227.885 93.3955C227.283 93.33 226.603 93.2973 225.846 93.2973V100.543C225.846 101.282 225.854 101.925 225.871 102.475C225.885 103.024 225.906 103.5 225.931 103.902C225.963 104.296 226 104.628 226.042 104.899C226.081 105.169 226.132 105.391 226.188 105.563V105.612H223.364V105.563C223.423 105.391 223.47 105.169 223.512 104.899C223.552 104.628 223.589 104.296 223.621 103.902C223.654 103.5 223.679 103.024 223.696 102.475C223.71 101.925 223.719 101.282 223.719 100.543V93.2973ZM242.488 94.9581H242.244C242.194 94.8187 242.112 94.6423 241.998 94.429C241.893 94.2159 241.745 94.0067 241.56 93.8016C241.38 93.5965 241.155 93.4243 240.886 93.2849C240.617 93.1373 240.296 93.0634 239.921 93.0634C239.637 93.0634 239.38 93.1127 239.151 93.2112C238.932 93.3013 238.744 93.4285 238.59 93.5925C238.434 93.7565 238.317 93.9534 238.236 94.1829C238.154 94.4044 238.112 94.6463 238.112 94.9087C238.112 95.3354 238.24 95.7413 238.492 96.1268C238.753 96.5122 239.074 96.8977 239.458 97.2832C239.839 97.6605 240.256 98.0418 240.703 98.4273C241.151 98.8128 241.566 99.2147 241.95 99.6329C242.333 100.051 242.65 100.494 242.903 100.962C243.163 101.429 243.295 101.93 243.295 102.463C243.295 102.856 243.22 103.262 243.074 103.681C242.936 104.099 242.707 104.476 242.39 104.812C242.073 105.149 241.664 105.424 241.168 105.637C240.671 105.858 240.069 105.969 239.36 105.969C238.968 105.969 238.594 105.936 238.236 105.87C237.885 105.805 237.56 105.723 237.257 105.624C236.963 105.534 236.699 105.436 236.463 105.329C236.236 105.214 236.044 105.108 235.889 105.009L236.108 102.684H236.365C236.446 102.971 236.565 103.258 236.719 103.545C236.882 103.832 237.078 104.095 237.305 104.333C237.543 104.562 237.816 104.751 238.125 104.899C238.442 105.038 238.805 105.108 239.214 105.108C239.497 105.108 239.766 105.063 240.019 104.972C240.271 104.874 240.488 104.739 240.667 104.566C240.855 104.394 241.001 104.185 241.107 103.939C241.214 103.685 241.266 103.402 241.266 103.09C241.266 102.721 241.193 102.381 241.045 102.069C240.899 101.749 240.703 101.446 240.459 101.159C240.215 100.863 239.937 100.58 239.629 100.31C239.326 100.039 239.013 99.7642 238.688 99.4853C238.361 99.2065 238.044 98.9237 237.735 98.6365C237.433 98.3412 237.159 98.0255 236.915 97.6893C236.671 97.3529 236.475 96.9962 236.329 96.6189C236.181 96.2334 236.108 95.811 236.108 95.3518C236.108 94.8678 236.211 94.4332 236.415 94.0477C236.617 93.6622 236.886 93.3382 237.22 93.0758C237.556 92.8051 237.937 92.6 238.369 92.4606C238.801 92.313 239.249 92.2393 239.714 92.2393C240.056 92.2393 240.373 92.2638 240.667 92.313C240.967 92.3623 241.237 92.4238 241.474 92.4975C241.718 92.5632 241.929 92.6329 242.108 92.7066C242.288 92.7724 242.434 92.8257 242.548 92.8666L242.488 94.9581Z" fill="#AF530A"/>
<path d="M28.699 28.0202V5.24915H293.552V28.1353" stroke="#AF530A" stroke-width="8" stroke-linecap="round"/>
<path d="M28.5947 79.6815V98.3684H60.1894" stroke="#AF530A" stroke-width="8" stroke-linecap="round"/>
<path d="M293.761 79.7865V98.2634H252.156" stroke="#AF530A" stroke-width="8"/>
</svg>
