<svg width="14" height="15" viewBox="0 0 14 15" fill="none" xmlns="http://www.w3.org/2000/svg">
<path d="M13.8674 14.1839L10.2528 10.3731C11.1994 9.27123 11.781 7.81402 11.781 6.21052C11.7805 2.78032 9.14346 0 5.89025 0C2.63704 0 0 2.78032 0 6.21052C0 9.64071 2.63704 12.421 5.89025 12.421C7.29586 12.421 8.58505 11.9001 9.5977 11.0341L13.2264 14.86C13.4032 15.0467 13.6902 15.0467 13.867 14.86C14.0443 14.6734 14.0443 14.3706 13.8674 14.1839ZM5.89025 11.4655C3.13768 11.4655 0.906298 9.11277 0.906298 6.21052C0.906298 3.30826 3.13768 0.955524 5.89025 0.955524C8.64284 0.955524 10.8742 3.30826 10.8742 6.21052C10.8742 9.11277 8.64284 11.4655 5.89025 11.4655Z" fill="#AAAAAA"/>
</svg>
