<svg width="10" height="10" viewBox="0 0 10 10" fill="none" xmlns="http://www.w3.org/2000/svg">
<path d="M9.73777 7.33898L8.33931 5.94345C7.83985 5.44505 6.99079 5.64443 6.791 6.29234C6.64117 6.74092 6.14172 6.99012 5.69221 6.89042C4.69331 6.64122 3.34478 5.34537 3.09506 4.29873C2.94522 3.85014 3.24489 3.35174 3.6944 3.20224C4.34369 3.00288 4.54347 2.15559 4.04402 1.65719L2.64555 0.261662C2.24599 -0.0872205 1.64665 -0.0872205 1.29703 0.261662L0.348072 1.20863C-0.600887 2.20543 0.447962 4.84697 2.79539 7.18946C5.14281 9.53196 7.78991 10.6285 8.78881 9.63164L9.73777 8.68467C10.0874 8.28595 10.0874 7.68787 9.73777 7.33898Z" fill="#252525"/>
</svg>
