<svg width="20" height="20" viewBox="0 0 20 20" fill="none" xmlns="http://www.w3.org/2000/svg">
<path d="M19.344 14.5932L16.5691 11.8183C15.578 10.8272 13.8933 11.2237 13.4968 12.512C13.1995 13.404 12.2085 13.8995 11.3165 13.7013C9.33442 13.2058 6.65859 10.629 6.16306 8.54782C5.86574 7.65583 6.46038 6.66478 7.35232 6.36751C8.64069 5.97109 9.03711 4.2863 8.04606 3.29525L5.27111 0.520302C4.47827 -0.173434 3.28901 -0.173434 2.59527 0.520302L0.712277 2.4033C-1.17072 4.3854 0.910488 9.63798 5.56843 14.2959C10.2264 18.9539 15.4789 21.1342 17.461 19.1521L19.344 17.2691C20.0378 16.4762 20.0378 15.287 19.344 14.5932Z" fill="#252525"/>
</svg>
